<svg width="350" height="181" viewBox="0 0 350 181" fill="none" xmlns="http://www.w3.org/2000/svg">
<path d="M162.106 16.3613H5.08897C2.28027 16.366 0.00448662 18.744 0 21.6789V132.394C0.00270062 135.33 2.27952 137.709 5.08897 137.712H162.106C164.915 137.709 167.192 135.33 167.195 132.394V21.6789C167.19 18.744 164.914 16.366 162.106 16.3613Z" fill="#E6E6E6"/>
<path d="M101.28 110.986H64.5478C63.4657 110.988 62.5897 111.906 62.5908 113.036V173.669H103.242V113.036C103.243 111.905 102.365 110.987 101.282 110.986H101.28ZM83.0376 145.437C80.6467 145.426 78.7112 143.403 78.7001 140.905V133.911C78.7001 131.408 80.642 129.379 83.0375 129.379C85.4331 129.379 87.375 131.408 87.375 133.911V140.905C87.3639 143.403 85.4285 145.426 83.0376 145.437Z" fill="#CCCCCC"/>
<path d="M62.4644 171.73V177.58C62.4656 178.211 62.9549 178.722 63.5588 178.723H102.273C102.877 178.72 103.365 178.21 103.368 177.58V171.73H62.4644Z" fill="#3F3D56"/>
<path d="M160.794 20.2021H6.40029C4.89634 20.2056 3.67884 21.4804 3.67871 23.0519V131.023C3.68128 132.593 4.89828 133.864 6.40029 133.867H160.794C162.296 133.864 163.513 132.593 163.516 131.023V23.0519C163.516 21.4804 162.298 20.2056 160.794 20.2021Z" fill="white"/>
<path d="M130.722 180.759H38.8655C37.9323 180.759 37.1758 179.968 37.1758 178.993C37.1758 178.871 37.1879 178.749 37.212 178.63L38.6373 171.556C38.8044 170.741 39.4926 170.157 40.2905 170.154H129.297C130.095 170.157 130.783 170.741 130.95 171.556L132.375 178.63C132.567 179.584 131.983 180.52 131.07 180.721C130.955 180.746 130.839 180.759 130.722 180.759Z" fill="#CCCCCC"/>
<path d="M43.4199 171.428H41.294C41.0998 171.428 40.9424 171.593 40.9424 171.796V172.835C40.9424 173.037 41.0998 173.202 41.294 173.202H43.4199C43.6141 173.202 43.7715 173.037 43.7715 172.835V171.796C43.7715 171.593 43.6141 171.428 43.4199 171.428Z" fill="#E6E6E6"/>
<path d="M49.0781 171.428H46.9522C46.758 171.428 46.6006 171.593 46.6006 171.796V172.835C46.6006 173.037 46.758 173.202 46.9522 173.202H49.0781C49.2723 173.202 49.4297 173.037 49.4297 172.835V171.796C49.4297 171.593 49.2723 171.428 49.0781 171.428Z" fill="#E6E6E6"/>
<path d="M54.7368 171.428H52.6109C52.4167 171.428 52.2593 171.593 52.2593 171.796V172.835C52.2593 173.037 52.4167 173.202 52.6109 173.202H54.7368C54.931 173.202 55.0884 173.037 55.0884 172.835V171.796C55.0884 171.593 54.931 171.428 54.7368 171.428Z" fill="#E6E6E6"/>
<path d="M60.3955 171.428H58.2695C58.0754 171.428 57.918 171.593 57.918 171.796V172.835C57.918 173.037 58.0754 173.202 58.2695 173.202H60.3955C60.5897 173.202 60.7471 173.037 60.7471 172.835V171.796C60.7471 171.593 60.5897 171.428 60.3955 171.428Z" fill="#E6E6E6"/>
<path d="M66.0532 171.428H63.9273C63.7331 171.428 63.5757 171.593 63.5757 171.796V172.835C63.5757 173.037 63.7331 173.202 63.9273 173.202H66.0532C66.2474 173.202 66.4048 173.037 66.4048 172.835V171.796C66.4048 171.593 66.2474 171.428 66.0532 171.428Z" fill="#E6E6E6"/>
<path d="M71.7114 171.428H69.5855C69.3913 171.428 69.2339 171.593 69.2339 171.796V172.835C69.2339 173.037 69.3913 173.202 69.5855 173.202H71.7114C71.9056 173.202 72.063 173.037 72.063 172.835V171.796C72.063 171.593 71.9056 171.428 71.7114 171.428Z" fill="#E6E6E6"/>
<path d="M77.3696 171.428H75.2437C75.0495 171.428 74.8921 171.593 74.8921 171.796V172.835C74.8921 173.037 75.0495 173.202 75.2437 173.202H77.3696C77.5638 173.202 77.7212 173.037 77.7212 172.835V171.796C77.7212 171.593 77.5638 171.428 77.3696 171.428Z" fill="#E6E6E6"/>
<path d="M83.0273 171.428H80.9014C80.7072 171.428 80.5498 171.593 80.5498 171.796V172.835C80.5498 173.037 80.7072 173.202 80.9014 173.202H83.0273C83.2215 173.202 83.3789 173.037 83.3789 172.835V171.796C83.3789 171.593 83.2215 171.428 83.0273 171.428Z" fill="#E6E6E6"/>
<path d="M88.6855 171.428H86.5596C86.3654 171.428 86.208 171.593 86.208 171.796V172.835C86.208 173.037 86.3654 173.202 86.5596 173.202H88.6855C88.8797 173.202 89.0371 173.037 89.0371 172.835V171.796C89.0371 171.593 88.8797 171.428 88.6855 171.428Z" fill="#E6E6E6"/>
<path d="M94.3437 171.428H92.2178C92.0236 171.428 91.8662 171.593 91.8662 171.796V172.835C91.8662 173.037 92.0236 173.202 92.2178 173.202H94.3437C94.5379 173.202 94.6953 173.037 94.6953 172.835V171.796C94.6953 171.593 94.5379 171.428 94.3437 171.428Z" fill="#E6E6E6"/>
<path d="M100.002 171.428H97.876C97.6818 171.428 97.5244 171.593 97.5244 171.796V172.835C97.5244 173.037 97.6818 173.202 97.876 173.202H100.002C100.196 173.202 100.353 173.037 100.353 172.835V171.796C100.353 171.593 100.196 171.428 100.002 171.428Z" fill="#E6E6E6"/>
<path d="M105.661 171.428H103.535C103.341 171.428 103.183 171.593 103.183 171.796V172.835C103.183 173.037 103.341 173.202 103.535 173.202H105.661C105.855 173.202 106.012 173.037 106.012 172.835V171.796C106.012 171.593 105.855 171.428 105.661 171.428Z" fill="#E6E6E6"/>
<path d="M111.318 171.428H109.192C108.998 171.428 108.841 171.593 108.841 171.796V172.835C108.841 173.037 108.998 173.202 109.192 173.202H111.318C111.512 173.202 111.67 173.037 111.67 172.835V171.796C111.67 171.593 111.512 171.428 111.318 171.428Z" fill="#E6E6E6"/>
<path d="M116.976 171.428H114.85C114.656 171.428 114.499 171.593 114.499 171.796V172.835C114.499 173.037 114.656 173.202 114.85 173.202H116.976C117.17 173.202 117.328 173.037 117.328 172.835V171.796C117.328 171.593 117.17 171.428 116.976 171.428Z" fill="#E6E6E6"/>
<path d="M122.635 171.428H120.509C120.315 171.428 120.157 171.593 120.157 171.796V172.835C120.157 173.037 120.315 173.202 120.509 173.202H122.635C122.829 173.202 122.986 173.037 122.986 172.835V171.796C122.986 171.593 122.829 171.428 122.635 171.428Z" fill="#E6E6E6"/>
<path d="M128.293 171.428H126.167C125.973 171.428 125.815 171.593 125.815 171.796V172.835C125.815 173.037 125.973 173.202 126.167 173.202H128.293C128.487 173.202 128.645 173.037 128.645 172.835V171.796C128.645 171.593 128.487 171.428 128.293 171.428Z" fill="#E6E6E6"/>
<path d="M43.353 174.384H41.2271C41.0329 174.384 40.8755 174.549 40.8755 174.752V175.791C40.8755 175.994 41.0329 176.158 41.2271 176.158H43.353C43.5472 176.158 43.7046 175.994 43.7046 175.791V174.752C43.7046 174.549 43.5472 174.384 43.353 174.384Z" fill="#E6E6E6"/>
<path d="M49.0117 174.384H46.8858C46.6916 174.384 46.5342 174.549 46.5342 174.752V175.791C46.5342 175.994 46.6916 176.158 46.8858 176.158H49.0117C49.2058 176.158 49.3633 175.994 49.3633 175.791V174.752C49.3633 174.549 49.2058 174.384 49.0117 174.384Z" fill="#E6E6E6"/>
<path d="M54.6704 174.384H52.5444C52.3503 174.384 52.1929 174.549 52.1929 174.752V175.791C52.1929 175.994 52.3503 176.158 52.5444 176.158H54.6704C54.8645 176.158 55.0219 175.994 55.0219 175.791V174.752C55.0219 174.549 54.8645 174.384 54.6704 174.384Z" fill="#E6E6E6"/>
<path d="M60.3281 174.384H58.2022C58.008 174.384 57.8506 174.549 57.8506 174.752V175.791C57.8506 175.994 58.008 176.158 58.2022 176.158H60.3281C60.5223 176.158 60.6797 175.994 60.6797 175.791V174.752C60.6797 174.549 60.5223 174.384 60.3281 174.384Z" fill="#E6E6E6"/>
<path d="M65.9863 174.384H63.8604C63.6662 174.384 63.5088 174.549 63.5088 174.752V175.791C63.5088 175.994 63.6662 176.158 63.8604 176.158H65.9863C66.1805 176.158 66.3379 175.994 66.3379 175.791V174.752C66.3379 174.549 66.1805 174.384 65.9863 174.384Z" fill="#E6E6E6"/>
<path d="M71.644 174.384H69.5181C69.3239 174.384 69.1665 174.549 69.1665 174.752V175.791C69.1665 175.994 69.3239 176.158 69.5181 176.158H71.644C71.8382 176.158 71.9956 175.994 71.9956 175.791V174.752C71.9956 174.549 71.8382 174.384 71.644 174.384Z" fill="#E6E6E6"/>
<path d="M77.3022 174.384H75.1763C74.9821 174.384 74.8247 174.549 74.8247 174.752V175.791C74.8247 175.994 74.9821 176.158 75.1763 176.158H77.3022C77.4964 176.158 77.6538 175.994 77.6538 175.791V174.752C77.6538 174.549 77.4964 174.384 77.3022 174.384Z" fill="#E6E6E6"/>
<path d="M82.9604 174.384H80.8345C80.6403 174.384 80.4829 174.549 80.4829 174.752V175.791C80.4829 175.994 80.6403 176.158 80.8345 176.158H82.9604C83.1546 176.158 83.312 175.994 83.312 175.791V174.752C83.312 174.549 83.1546 174.384 82.9604 174.384Z" fill="#E6E6E6"/>
<path d="M88.6181 174.384H86.4922C86.298 174.384 86.1406 174.549 86.1406 174.752V175.791C86.1406 175.994 86.298 176.158 86.4922 176.158H88.6181C88.8123 176.158 88.9697 175.994 88.9697 175.791V174.752C88.9697 174.549 88.8123 174.384 88.6181 174.384Z" fill="#E6E6E6"/>
<path d="M94.2773 174.384H92.1514C91.9572 174.384 91.7998 174.549 91.7998 174.752V175.791C91.7998 175.994 91.9572 176.158 92.1514 176.158H94.2773C94.4715 176.158 94.6289 175.994 94.6289 175.791V174.752C94.6289 174.549 94.4715 174.384 94.2773 174.384Z" fill="#E6E6E6"/>
<path d="M99.9355 174.384H97.8096C97.6154 174.384 97.458 174.549 97.458 174.752V175.791C97.458 175.994 97.6154 176.158 97.8096 176.158H99.9355C100.13 176.158 100.287 175.994 100.287 175.791V174.752C100.287 174.549 100.13 174.384 99.9355 174.384Z" fill="#E6E6E6"/>
<path d="M105.593 174.384H103.467C103.273 174.384 103.116 174.549 103.116 174.752V175.791C103.116 175.994 103.273 176.158 103.467 176.158H105.593C105.787 176.158 105.945 175.994 105.945 175.791V174.752C105.945 174.549 105.787 174.384 105.593 174.384Z" fill="#E6E6E6"/>
<path d="M111.251 174.384H109.126C108.931 174.384 108.774 174.549 108.774 174.752V175.791C108.774 175.994 108.931 176.158 109.126 176.158H111.251C111.446 176.158 111.603 175.994 111.603 175.791V174.752C111.603 174.549 111.446 174.384 111.251 174.384Z" fill="#E6E6E6"/>
<path d="M116.91 174.384H114.784C114.59 174.384 114.432 174.549 114.432 174.752V175.791C114.432 175.994 114.59 176.158 114.784 176.158H116.91C117.104 176.158 117.261 175.994 117.261 175.791V174.752C117.261 174.549 117.104 174.384 116.91 174.384Z" fill="#E6E6E6"/>
<path d="M122.568 174.384H120.442C120.248 174.384 120.09 174.549 120.09 174.752V175.791C120.09 175.994 120.248 176.158 120.442 176.158H122.568C122.762 176.158 122.919 175.994 122.919 175.791V174.752C122.919 174.549 122.762 174.384 122.568 174.384Z" fill="#E6E6E6"/>
<path d="M128.226 174.384H126.1C125.906 174.384 125.749 174.549 125.749 174.752V175.791C125.749 175.994 125.906 176.158 126.1 176.158H128.226C128.42 176.158 128.578 175.994 128.578 175.791V174.752C128.578 174.549 128.42 174.384 128.226 174.384Z" fill="#E6E6E6"/>
<path d="M153.034 35.0778H8.56786C8.25057 35.0705 7.99901 34.7958 8.006 34.4643C8.01275 34.143 8.26039 33.8843 8.56786 33.8772H153.034C153.351 33.8845 153.603 34.1592 153.596 34.4907C153.589 34.812 153.341 35.0708 153.034 35.0778Z" fill="#CACACA"/>
<path d="M41.6637 30.8124C43.5232 30.8124 45.0306 29.2022 45.0306 27.2159C45.0306 25.2296 43.5232 23.6194 41.6637 23.6194C39.8043 23.6194 38.2969 25.2296 38.2969 27.2159C38.2969 29.2022 39.8043 30.8124 41.6637 30.8124Z" fill="#CCCCCC"/>
<path d="M80.6527 44.1803L80.186 42.7558L139.857 10.3584L140.323 11.7829L80.6527 44.1803Z" fill="#3F3D56"/>
<path d="M251.051 103.847L250.617 102.446L284.031 70.7366L284.464 72.1372L251.051 103.847Z" fill="#3F3D56"/>
<path d="M216.476 88.7969L184.362 28.8082L185.377 27.843L217.49 87.8318L216.476 88.7969Z" fill="#3F3D56"/>
<path d="M241.255 11.2878L209.568 11.0659V9.03027L241.255 9.25216V11.2878Z" fill="#3F3D56"/>
<path d="M297.538 20.3179H262.751C258.038 20.3179 254.218 15.938 254.218 10.5352C254.218 5.13232 258.038 0.752441 262.751 0.752441H297.538C302.25 0.752441 306.07 5.13232 306.07 10.5352C306.07 15.938 302.25 20.3179 297.538 20.3179Z" fill="#97B8D7"/>
<path d="M341.467 77.5093H306.681C301.968 77.5093 298.148 73.1294 298.148 67.7266C298.148 62.3237 301.968 57.9438 306.681 57.9438H341.467C346.18 57.9438 350 62.3237 350 67.7266C350 73.1294 346.18 77.5093 341.467 77.5093Z" fill="#CBDCEB"/>
<path d="M284.464 118.145L253.497 117.924V115.888L284.464 116.109V118.145Z" fill="#3F3D56"/>
<path d="M341.467 127.175H306.681C301.968 127.175 298.148 122.795 298.148 117.393C298.148 111.99 301.968 107.61 306.681 107.61H341.467C346.18 107.61 350 111.99 350 117.393C350 122.795 346.18 127.175 341.467 127.175Z" fill="#97B8D7"/>
<path d="M239.085 120.403H203.816C199.038 120.403 195.165 116.023 195.165 110.62C195.165 105.217 199.038 100.837 203.816 100.837H239.085C243.863 100.837 247.737 105.217 247.737 110.62C247.737 116.023 243.863 120.403 239.085 120.403Z" fill="#BAD0E4"/>
<path d="M191.555 19.5655H156.285C151.507 19.5655 147.634 15.1856 147.634 9.78273C147.634 4.37988 151.507 0 156.285 0H191.555C196.333 0 200.206 4.37988 200.206 9.78273C200.206 15.1856 196.333 19.5655 191.555 19.5655Z" fill="#A8C4DE"/>
<path d="M53.5515 29.3169C53.4816 29.3169 53.4118 29.2886 53.359 29.2323L51.8224 27.5909C51.72 27.4815 51.72 27.3068 51.8224 27.1974L53.359 25.5562C53.4633 25.4452 53.634 25.4434 53.7398 25.5518C53.8462 25.6605 53.8481 25.8387 53.744 25.9497L52.3916 27.3942L53.744 28.8388C53.8481 28.9498 53.8462 29.128 53.7398 29.2367C53.6875 29.2903 53.6195 29.3169 53.5515 29.3169Z" fill="#CCCCCC"/>
<path d="M56.1341 29.3166C56.0661 29.3166 55.9981 29.29 55.9458 29.2364C55.8394 29.1277 55.8375 28.9496 55.9415 28.8385L57.2938 27.3939L55.9415 25.9494C55.8375 25.8384 55.8394 25.6602 55.9458 25.5515C56.0519 25.4427 56.2226 25.4447 56.3266 25.5559L57.863 27.1971C57.9655 27.3065 57.9655 27.4813 57.863 27.5906L56.3266 29.232C56.2738 29.2883 56.204 29.3166 56.1341 29.3166Z" fill="#CCCCCC"/>
<path d="M136.521 25.2432H133.663C133.338 25.2432 133.074 25.5189 133.074 25.8594V28.8478C133.074 29.1883 133.338 29.4641 133.663 29.4641H136.521C136.847 29.4641 137.113 29.1883 137.113 28.8478V25.8594C137.113 25.5189 136.847 25.2432 136.521 25.2432Z" fill="#CCCCCC"/>
<path d="M129.519 25.2432H126.662C126.336 25.2432 126.072 25.5189 126.072 25.8594V28.8478C126.072 29.1883 126.336 29.4641 126.662 29.4641H129.519C129.845 29.4641 130.112 29.1883 130.112 28.8478V25.8594C130.112 25.5189 129.845 25.2432 129.519 25.2432Z" fill="#CCCCCC"/>
<path d="M143.118 25.3838H140.261C139.935 25.3838 139.671 25.6595 139.671 26V28.9884C139.671 29.3289 139.935 29.6047 140.261 29.6047H143.118C143.444 29.6047 143.711 29.3289 143.711 28.9884V26C143.711 25.6595 143.444 25.3838 143.118 25.3838Z" fill="#CCCCCC"/>
<path d="M100.053 26.5208H77.2137C76.8151 26.5208 76.4946 26.8584 76.4946 27.2721C76.4946 27.6857 76.8151 28.0234 77.2137 28.0234H100.053C100.448 28.0234 100.772 27.6857 100.772 27.2721C100.772 26.8584 100.448 26.5208 100.053 26.5208Z" fill="#CCCCCC"/>
<path d="M59.5902 74.3638H20.2071C18.8097 74.3654 17.4701 74.9352 16.482 75.9482C15.4939 76.9612 14.9381 78.3347 14.9365 79.7673V101.204C14.9381 102.637 15.4939 104.01 16.482 105.023C17.4701 106.036 18.8097 106.606 20.2071 106.608H59.5902C60.9875 106.606 62.3272 106.036 63.3153 105.023C64.3033 104.01 64.8591 102.637 64.8607 101.204V79.7673C64.8591 78.3347 64.3033 76.9612 63.3153 75.9482C62.3272 74.9352 60.9875 74.3654 59.5902 74.3638Z" fill="#E6E6E6"/>
<path d="M20.2065 78.7605C19.9461 78.7608 19.6966 78.8669 19.5125 79.0556C19.3284 79.2444 19.2249 79.5002 19.2246 79.7671V101.204C19.2249 101.471 19.3284 101.727 19.5125 101.915C19.6966 102.104 19.9461 102.21 20.2065 102.211H59.5897C59.85 102.21 60.0996 102.104 60.2836 101.915C60.4677 101.727 60.5712 101.471 60.5715 101.204V79.7671C60.5712 79.5002 60.4677 79.2444 60.2836 79.0556C60.0996 78.8669 59.85 78.7608 59.5897 78.7605H20.2065Z" fill="white"/>
<path d="M39.1016 99.9507C39.0882 99.9507 39.0747 99.9503 39.0611 99.9496C38.9002 99.9402 38.7471 99.875 38.6271 99.7646C38.5071 99.6543 38.4273 99.5054 38.4008 99.3423L36.1215 85.3211L34.1089 93.5745C34.0705 93.732 33.9819 93.8718 33.857 93.9718C33.7322 94.0717 33.5784 94.126 33.42 94.126H30.5793C30.391 94.126 30.2103 94.0493 30.0771 93.9127C29.944 93.7762 29.8691 93.591 29.8691 93.3979C29.8691 93.2048 29.944 93.0196 30.0771 92.883C30.2103 92.7465 30.391 92.6698 30.5793 92.6698H32.8655L35.5717 81.5718C35.6113 81.4095 35.7042 81.266 35.8348 81.1657C35.9655 81.0653 36.1259 81.0142 36.289 81.0208C36.4521 81.0275 36.608 81.0916 36.7304 81.2023C36.8528 81.313 36.9343 81.4636 36.9611 81.6287L39.2839 95.9171L41.2591 88.8293C41.3008 88.6798 41.3881 88.5478 41.5082 88.4528C41.6283 88.3579 41.7749 88.3048 41.9265 88.3014C42.0782 88.298 42.2269 88.3445 42.3509 88.4341C42.4749 88.5236 42.5677 88.6515 42.6157 88.7991L43.8742 92.6698H46.203C46.3913 92.6698 46.5719 92.7465 46.7051 92.883C46.8383 93.0196 46.9131 93.2048 46.9131 93.3979C46.9131 93.591 46.8383 93.7762 46.7051 93.9127C46.5719 94.0493 46.3913 94.126 46.203 94.126H43.3623C43.2133 94.126 43.068 94.0779 42.9471 93.9885C42.8262 93.8992 42.7357 93.7731 42.6886 93.6281L41.9942 91.4923L39.7841 99.4226C39.7418 99.5747 39.6522 99.7085 39.5291 99.8038C39.4059 99.8991 39.2559 99.9506 39.1016 99.9507Z" fill="#97B8D7"/>
<path d="M47.8384 95.5515C48.9923 95.5515 49.9278 94.5925 49.9278 93.4094C49.9278 92.2264 48.9923 91.2673 47.8384 91.2673C46.6845 91.2673 45.749 92.2264 45.749 93.4094C45.749 94.5925 46.6845 95.5515 47.8384 95.5515Z" fill="#3F3D56"/>
<path d="M120.731 74.3638H81.3477C79.9503 74.3654 78.6107 74.9352 77.6226 75.9482C76.6345 76.9612 76.0787 78.3347 76.0771 79.7673V101.204C76.0787 102.637 76.6345 104.01 77.6226 105.023C78.6107 106.036 79.9503 106.606 81.3477 106.608H120.731C122.128 106.606 123.468 106.036 124.456 105.023C125.444 104.01 126 102.637 126.001 101.204V79.7673C126 78.3347 125.444 76.9612 124.456 75.9482C123.468 74.9352 122.128 74.3654 120.731 74.3638Z" fill="#E6E6E6"/>
<path d="M81.3476 78.7605C81.0873 78.7608 80.8377 78.8669 80.6536 79.0556C80.4695 79.2444 80.366 79.5002 80.3657 79.7671V101.204C80.366 101.471 80.4695 101.727 80.6536 101.915C80.8377 102.104 81.0873 102.21 81.3476 102.211H120.731C120.991 102.21 121.241 102.104 121.425 101.915C121.609 101.727 121.712 101.471 121.713 101.204V79.7671C121.712 79.5002 121.609 79.2444 121.425 79.0556C121.241 78.8669 120.991 78.7608 120.731 78.7605H81.3476Z" fill="white"/>
<path d="M101.039 91.6396C103.908 91.6396 106.234 89.2551 106.234 86.3136C106.234 83.3721 103.908 80.9875 101.039 80.9875C98.1696 80.9875 95.8438 83.3721 95.8438 86.3136C95.8438 89.2551 98.1696 91.6396 101.039 91.6396Z" fill="#FABB84"/>
<path d="M101.038 92.5273C102.875 92.5273 104.637 93.2755 105.936 94.6073C107.235 95.9391 107.965 97.7453 107.965 99.6287V99.9838H94.1118V99.6287C94.1118 97.7453 94.8416 95.9391 96.1405 94.6073C97.4395 93.2755 99.2013 92.5273 101.038 92.5273Z" fill="#FABB84"/>
<path d="M90.4758 94.3026C92.4841 94.3026 94.1122 92.6335 94.1122 90.5744C94.1122 88.5154 92.4841 86.8462 90.4758 86.8462C88.4674 86.8462 86.8394 88.5154 86.8394 90.5744C86.8394 92.6335 88.4674 94.3026 90.4758 94.3026Z" fill="#3F3D56"/>
<path d="M94.0373 96.0155C93.3384 95.3802 92.4753 94.9653 91.5519 94.821C90.6285 94.6766 89.684 94.8088 88.8322 95.2018C87.9803 95.5947 87.2573 96.2316 86.7502 97.0359C86.2431 97.8401 85.9734 98.7775 85.9736 99.7351V99.9837H93.0733V99.6286C93.0718 98.3573 93.4048 97.1091 94.0373 96.0155Z" fill="#3F3D56"/>
<path d="M111.602 94.3026C113.61 94.3026 115.238 92.6335 115.238 90.5744C115.238 88.5154 113.61 86.8462 111.602 86.8462C109.593 86.8462 107.965 88.5154 107.965 90.5744C107.965 92.6335 109.593 94.3026 111.602 94.3026Z" fill="#3F3D56"/>
<path d="M108.041 96.0155C108.739 95.3802 109.602 94.9653 110.526 94.821C111.449 94.6766 112.394 94.8088 113.246 95.2018C114.097 95.5947 114.82 96.2316 115.328 97.0359C115.835 97.8401 116.104 98.7775 116.104 99.7351V99.9837H109.004V99.6286C109.006 98.3573 108.673 97.1091 108.041 96.0155Z" fill="#3F3D56"/>
<path d="M181.871 74.3638H142.488C141.091 74.3654 139.751 74.9352 138.763 75.9482C137.775 76.9612 137.219 78.3347 137.218 79.7673V101.204C137.219 102.637 137.775 104.01 138.763 105.023C139.751 106.036 141.091 106.606 142.488 106.608H181.871C183.269 106.606 184.608 106.036 185.597 105.023C186.585 104.01 187.14 102.637 187.142 101.204V79.7673C187.14 78.3347 186.585 76.9612 185.597 75.9482C184.608 74.9352 183.269 74.3654 181.871 74.3638Z" fill="#E6E6E6"/>
<path d="M142.489 78.7605C142.228 78.7608 141.979 78.8669 141.795 79.0556C141.611 79.2444 141.507 79.5002 141.507 79.7671V101.204C141.507 101.471 141.611 101.727 141.795 101.915C141.979 102.104 142.228 102.21 142.489 102.211H181.872C182.132 102.21 182.382 102.104 182.566 101.915C182.75 101.727 182.853 101.471 182.854 101.204V79.7671C182.853 79.5002 182.75 79.2444 182.566 79.0556C182.382 78.8669 182.132 78.7608 181.872 78.7605H142.489Z" fill="white"/>
<path d="M161.52 100.399C161.435 100.399 161.352 100.382 161.273 100.348C161.195 100.315 161.124 100.266 161.064 100.205C161.004 100.144 160.957 100.071 160.925 99.9907C160.892 99.9105 160.875 99.8246 160.875 99.7378V94.4509C160.876 94.2758 160.944 94.1081 161.065 93.9844C161.186 93.8607 161.349 93.7913 161.52 93.7913C161.691 93.7913 161.855 93.8607 161.975 93.9844C162.096 94.1081 162.164 94.2758 162.165 94.4509V99.7378C162.165 99.8246 162.148 99.9105 162.116 99.9907C162.083 100.071 162.036 100.144 161.976 100.205C161.916 100.267 161.845 100.315 161.767 100.348C161.689 100.382 161.605 100.399 161.52 100.399Z" fill="#EE6A76"/>
<path d="M163.776 97.7553H159.264C159.093 97.7553 158.929 97.6857 158.808 97.5618C158.687 97.4378 158.619 97.2697 158.619 97.0945C158.619 96.9192 158.687 96.7511 158.808 96.6272C158.929 96.5032 159.093 96.4336 159.264 96.4336H163.776C163.947 96.4336 164.111 96.5032 164.232 96.6272C164.353 96.7511 164.421 96.9192 164.421 97.0945C164.421 97.2697 164.353 97.4378 164.232 97.5618C164.111 97.6857 163.947 97.7553 163.776 97.7553Z" fill="#EE6A76"/>
<path d="M170.223 85.1988C170.138 85.1988 170.054 85.1817 169.976 85.1485C169.898 85.1153 169.827 85.0666 169.767 85.0052C169.707 84.9439 169.659 84.871 169.627 84.7908C169.595 84.7107 169.578 84.6247 169.578 84.5379V81.8945H167C166.915 81.8945 166.831 81.8774 166.753 81.8442C166.675 81.811 166.604 81.7623 166.544 81.7009C166.484 81.6396 166.436 81.5667 166.404 81.4865C166.372 81.4063 166.355 81.3204 166.355 81.2336C166.355 81.1468 166.372 81.0609 166.404 80.9807C166.436 80.9005 166.484 80.8277 166.544 80.7663C166.604 80.705 166.675 80.6563 166.753 80.6231C166.831 80.5898 166.915 80.5728 167 80.5728H170.223C170.307 80.5728 170.391 80.5898 170.469 80.6231C170.547 80.6563 170.618 80.705 170.678 80.7663C170.738 80.8277 170.786 80.9005 170.818 80.9807C170.85 81.0609 170.867 81.1468 170.867 81.2336V84.5379C170.867 84.6247 170.85 84.7107 170.818 84.7908C170.786 84.871 170.738 84.9439 170.678 85.0052C170.618 85.0666 170.547 85.1153 170.469 85.1485C170.391 85.1817 170.307 85.1988 170.223 85.1988Z" fill="#EE6A76"/>
<path d="M166.326 85.8895C166.198 85.8895 166.074 85.8508 165.968 85.7782C165.862 85.7055 165.779 85.6023 165.73 85.4816C165.681 85.3608 165.669 85.2279 165.694 85.0997C165.718 84.9715 165.78 84.8538 165.87 84.7614L169.767 80.7664C169.887 80.6428 170.051 80.5734 170.222 80.5735C170.393 80.5736 170.557 80.6432 170.678 80.7671C170.798 80.8909 170.866 81.0588 170.866 81.2339C170.866 81.4091 170.799 81.5771 170.678 81.7011L166.782 85.696C166.722 85.7574 166.651 85.8062 166.572 85.8394C166.494 85.8726 166.41 85.8897 166.326 85.8895Z" fill="#EE6A76"/>
<path d="M161.52 94.4507C160.309 94.4507 159.125 94.0825 158.118 93.3927C157.111 92.7028 156.326 91.7223 155.863 90.5751C155.399 89.4279 155.278 88.1655 155.514 86.9477C155.75 85.7298 156.334 84.6112 157.19 83.7331C158.046 82.8551 159.138 82.2572 160.325 82.0149C161.513 81.7727 162.745 81.897 163.864 82.3722C164.982 82.8474 165.939 83.6521 166.612 84.6845C167.285 85.717 167.644 86.9308 167.644 88.1725C167.642 89.837 166.996 91.4328 165.848 92.6098C164.7 93.7868 163.144 94.4488 161.52 94.4507ZM161.52 83.216C160.564 83.216 159.629 83.5067 158.834 84.0513C158.039 84.596 157.42 85.3701 157.054 86.2757C156.688 87.1814 156.592 88.178 156.779 89.1395C156.965 90.1009 157.426 90.9841 158.102 91.6773C158.778 92.3705 159.639 92.8425 160.577 93.0338C161.515 93.225 162.487 93.1269 163.37 92.7517C164.254 92.3766 165.009 91.7413 165.54 90.9262C166.071 90.1111 166.355 89.1528 166.355 88.1725C166.353 86.8584 165.843 85.5986 164.937 84.6694C164.031 83.7402 162.802 83.2175 161.52 83.216Z" fill="#3F3D56"/>
<line y1="-1" x2="68.8338" y2="-1" transform="matrix(0.882554 0.47021 -0.468037 0.883709 171.327 37.3201)" stroke="#3F3D56" stroke-width="2"/>
<line x1="43.0513" y1="57.8503" x2="152.876" y2="57.8503" stroke="#E6E6E6" stroke-width="3"/>
<line x1="47.4443" y1="65.7812" x2="146.726" y2="65.7813" stroke="#E6E6E6" stroke-width="3"/>
<line x1="48.3232" y1="81.6431" x2="147.605" y2="81.6431" stroke="#E6E6E6" stroke-width="3"/>
<line x1="44.8091" y1="73.7124" x2="152.877" y2="73.7124" stroke="#E6E6E6" stroke-width="3"/>
</svg>
