<svg width="350" height="257" viewBox="0 0 350 257" fill="none" xmlns="http://www.w3.org/2000/svg">
<path d="M268.03 20.9898H1.0395C0.761798 20.9837 0.497461 20.8652 0.303144 20.6596C0.108826 20.4541 0 20.1778 0 19.8902C0 19.6025 0.108826 19.3263 0.303144 19.1207C0.497461 18.9151 0.761798 18.7966 1.0395 18.7905H268.03C268.308 18.7966 268.572 18.9151 268.767 19.1207C268.961 19.3263 269.07 19.6025 269.07 19.8902C269.07 20.1778 268.961 20.4541 268.767 20.6596C268.572 20.8652 268.308 20.9837 268.03 20.9898Z" fill="#3F3D56"/>
<path d="M19.214 13.1759C22.6506 13.1759 25.4364 10.2264 25.4364 6.58797C25.4364 2.94953 22.6506 0 19.214 0C15.7775 0 12.9917 2.94953 12.9917 6.58797C12.9917 10.2264 15.7775 13.1759 19.214 13.1759Z" fill="#3F3D56"/>
<path d="M40.7092 13.1759C44.1457 13.1759 46.9315 10.2264 46.9315 6.58797C46.9315 2.94953 44.1457 0 40.7092 0C37.2727 0 34.4868 2.94953 34.4868 6.58797C34.4868 10.2264 37.2727 13.1759 40.7092 13.1759Z" fill="#3F3D56"/>
<path d="M62.2048 13.1759C65.6413 13.1759 68.4271 10.2264 68.4271 6.58797C68.4271 2.94953 65.6413 0 62.2048 0C58.7683 0 55.9824 2.94953 55.9824 6.58797C55.9824 10.2264 58.7683 13.1759 62.2048 13.1759Z" fill="#3F3D56"/>
<path d="M255.089 1.6333H239.819C239.517 1.63954 239.229 1.76844 239.017 1.99231C238.805 2.21619 238.686 2.5172 238.686 2.8307C238.686 3.14421 238.805 3.44521 239.017 3.66909C239.229 3.89297 239.517 4.02186 239.819 4.0281H255.089C255.391 4.02186 255.679 3.89297 255.891 3.66909C256.103 3.44521 256.222 3.14421 256.222 2.8307C256.222 2.5172 256.103 2.21619 255.891 1.99231C255.679 1.76844 255.391 1.63954 255.089 1.6333Z" fill="#3F3D56"/>
<path d="M255.089 6.12756H239.82C239.517 6.13377 239.229 6.26265 239.017 6.48653C238.805 6.71041 238.686 7.01143 238.686 7.32496C238.686 7.63849 238.805 7.93953 239.017 8.16341C239.229 8.38729 239.517 8.51616 239.82 8.52236H255.089C255.391 8.51616 255.68 8.38729 255.892 8.16341C256.104 7.93953 256.222 7.63849 256.222 7.32496C256.222 7.01143 256.104 6.71041 255.892 6.48653C255.68 6.26265 255.391 6.13377 255.089 6.12756Z" fill="#3F3D56"/>
<path d="M255.089 10.6161H239.82C239.517 10.6223 239.229 10.7512 239.017 10.975C238.805 11.1989 238.686 11.5 238.686 11.8135C238.686 12.127 238.805 12.428 239.017 12.6519C239.229 12.8758 239.517 13.0047 239.82 13.0109H255.089C255.391 13.0047 255.68 12.8758 255.892 12.6519C256.104 12.428 256.222 12.127 256.222 11.8135C256.222 11.5 256.104 11.1989 255.892 10.975C255.68 10.7512 255.391 10.6223 255.089 10.6161Z" fill="#3F3D56"/>
<path d="M20.6844 65.6666C24.933 65.6666 28.3771 62.0996 28.3771 57.6995C28.3771 53.2993 24.933 49.7323 20.6844 49.7323C16.4358 49.7323 12.9917 53.2993 12.9917 57.6995C12.9917 62.0996 16.4358 65.6666 20.6844 65.6666Z" fill="#CCCCCC"/>
<path d="M216.58 75.3416H15.2824C14.6749 75.3416 14.0922 75.0917 13.6626 74.6467C13.233 74.2018 12.9917 73.5984 12.9917 72.9692C12.9917 72.3399 13.233 71.7365 13.6626 71.2916C14.0922 70.8466 14.6749 70.5967 15.2824 70.5967H216.58C217.188 70.5967 217.77 70.8466 218.2 71.2916C218.63 71.7365 218.871 72.3399 218.871 72.9692C218.871 73.5984 218.63 74.2018 218.2 74.6467C217.77 75.0917 217.188 75.3416 216.58 75.3416Z" fill="#CCCCCC"/>
<path d="M163.786 84.7166H15.2825C14.675 84.7166 14.0923 84.4666 13.6627 84.0217C13.2331 83.5767 12.9917 82.9732 12.9917 82.344C12.9917 81.7148 13.2331 81.1113 13.6627 80.6663C14.0923 80.2214 14.675 79.9714 15.2825 79.9714H163.786C164.394 79.9714 164.977 80.2214 165.406 80.6663C165.836 81.1113 166.077 81.7148 166.077 82.344C166.077 82.9732 165.836 83.5767 165.406 84.0217C164.977 84.4666 164.394 84.7166 163.786 84.7166Z" fill="#CCCCCC"/>
<path d="M20.6844 190.022C24.933 190.022 28.3771 186.455 28.3771 182.055C28.3771 177.655 24.933 174.088 20.6844 174.088C16.4358 174.088 12.9917 177.655 12.9917 182.055C12.9917 186.455 16.4358 190.022 20.6844 190.022Z" fill="#CCCCCC"/>
<path d="M216.58 199.696H15.2822C14.9811 199.697 14.6828 199.636 14.4044 199.517C14.1261 199.398 13.8731 199.223 13.66 199.003C13.4469 198.782 13.2779 198.521 13.1625 198.233C13.0472 197.944 12.9878 197.636 12.9878 197.324C12.9878 197.012 13.0472 196.703 13.1625 196.415C13.2779 196.127 13.4469 195.865 13.66 195.645C13.8731 195.424 14.1261 195.25 14.4044 195.131C14.6828 195.012 14.9811 194.951 15.2822 194.951H216.58C217.218 194.988 217.82 195.271 218.267 195.743C218.715 196.216 218.975 196.845 218.998 197.507C218.979 197.815 218.901 198.117 218.769 198.394C218.638 198.672 218.454 198.919 218.229 199.123C218.004 199.327 217.743 199.482 217.46 199.58C217.177 199.679 216.878 199.718 216.58 199.696Z" fill="#CCCCCC"/>
<path d="M163.786 209.072H15.2825C14.675 209.072 14.0923 208.822 13.6627 208.377C13.2331 207.932 12.9917 207.329 12.9917 206.699C12.9917 206.07 13.2331 205.467 13.6627 205.022C14.0923 204.577 14.675 204.327 15.2825 204.327H163.786C164.394 204.327 164.977 204.577 165.406 205.022C165.836 205.467 166.077 206.07 166.077 206.699C166.077 207.329 165.836 207.932 165.406 208.377C164.977 208.822 164.394 209.072 163.786 209.072Z" fill="#CCCCCC"/>
<path d="M20.6844 123.157C24.933 123.157 28.3771 119.59 28.3771 115.19C28.3771 110.79 24.933 107.223 20.6844 107.223C16.4358 107.223 12.9917 110.79 12.9917 115.19C12.9917 119.59 16.4358 123.157 20.6844 123.157Z" fill="#CCCCCC"/>
<path d="M216.58 132.832H15.2824C14.6749 132.832 14.0922 132.582 13.6626 132.137C13.233 131.692 12.9917 131.089 12.9917 130.46C12.9917 129.83 13.233 129.227 13.6626 128.782C14.0922 128.337 14.6749 128.087 15.2824 128.087H216.58C217.188 128.087 217.77 128.337 218.2 128.782C218.63 129.227 218.871 129.83 218.871 130.46C218.871 131.089 218.63 131.692 218.2 132.137C217.77 132.582 217.188 132.832 216.58 132.832Z" fill="#CCCCCC"/>
<path d="M188.548 142.206H15.2825C14.675 142.206 14.0923 141.956 13.6627 141.511C13.2331 141.066 12.9917 140.463 12.9917 139.834C12.9917 139.204 13.2331 138.601 13.6627 138.156C14.0923 137.711 14.675 137.461 15.2825 137.461H188.548C189.156 137.461 189.738 137.711 190.168 138.156C190.598 138.601 190.839 139.204 190.839 139.834C190.839 140.463 190.598 141.066 190.168 141.511C189.738 141.956 189.156 142.206 188.548 142.206Z" fill="#CCCCCC"/>
<path d="M176.788 151.582H15.2825C14.675 151.582 14.0923 151.332 13.6627 150.887C13.2331 150.442 12.9917 149.838 12.9917 149.209C12.9917 148.58 13.2331 147.976 13.6627 147.531C14.0923 147.086 14.675 146.836 15.2825 146.836H176.788C177.396 146.836 177.978 147.086 178.408 147.531C178.838 147.976 179.079 148.58 179.079 149.209C179.079 149.838 178.838 150.442 178.408 150.887C177.978 151.332 177.396 151.582 176.788 151.582Z" fill="#CCCCCC"/>
<path d="M180.13 256.468C211.592 256.468 237.098 230.052 237.098 197.467C237.098 164.881 211.592 138.466 180.13 138.466C148.667 138.466 123.161 164.881 123.161 197.467C123.161 230.052 148.667 256.468 180.13 256.468Z" fill="#97B8D7"/>
<path d="M180.464 213.624C183.019 213.624 185.091 211.479 185.091 208.834C185.091 206.189 183.019 204.044 180.464 204.044C177.908 204.044 175.836 206.189 175.836 208.834C175.836 211.479 177.908 213.624 180.464 213.624Z" fill="white"/>
<path d="M198.325 192.24H161.935V181.151C161.935 172.205 170.097 164.926 180.13 164.926C190.162 164.926 198.325 172.205 198.325 181.151V192.24ZM163.11 191.023H197.149V181.151C197.149 172.876 189.515 166.144 180.13 166.144C170.745 166.144 163.11 172.876 163.11 181.151V191.023Z" fill="white"/>
<path d="M189.449 188.006H170.81C169.972 188.005 169.168 187.66 168.575 187.046C167.982 186.432 167.648 185.599 167.647 184.731V180.318C167.647 174.165 173.247 169.16 180.13 169.16C187.012 169.16 192.612 174.165 192.612 180.318V184.731C192.611 185.599 192.277 186.432 191.684 187.046C191.092 187.66 190.288 188.005 189.449 188.006ZM180.13 170.377C173.895 170.377 168.823 174.836 168.823 180.318V184.731C168.823 185.276 169.033 185.8 169.405 186.185C169.778 186.571 170.283 186.788 170.81 186.789H189.449C189.976 186.788 190.481 186.571 190.854 186.185C191.226 185.8 191.436 185.276 191.436 184.731V180.318C191.436 174.836 186.364 170.377 180.13 170.377Z" fill="white"/>
<rect x="178.613" y="184.296" width="3.70182" height="8.3291" fill="white"/>
<path d="M195.159 228.387H165.101C162.125 228.384 159.271 227.158 157.167 224.978C155.062 222.799 153.878 219.843 153.875 216.761V202.488C153.878 199.405 155.062 196.45 157.167 194.271C159.271 192.091 162.125 190.865 165.101 190.861H195.159C198.135 190.865 200.988 192.091 203.093 194.271C205.197 196.45 206.381 199.406 206.385 202.488V216.761C206.381 219.843 205.197 222.798 203.093 224.978C200.988 227.158 198.135 228.384 195.159 228.387ZM165.101 192.079C162.436 192.082 159.882 193.18 157.998 195.131C156.113 197.082 155.053 199.728 155.05 202.488V216.761C155.053 219.521 156.113 222.166 157.998 224.118C159.882 226.069 162.436 227.167 165.101 227.17H195.159C197.823 227.167 200.378 226.069 202.262 224.118C204.146 222.166 205.206 219.521 205.209 216.761V202.488C205.206 199.728 204.146 197.082 202.262 195.131C200.378 193.18 197.823 192.082 195.159 192.079L165.101 192.079Z" fill="white"/>
<path d="M283.684 248.981L277.129 248.98L274.01 222.791L283.686 222.792L283.684 248.981Z" fill="#A0616A"/>
<path d="M283.915 256.064L263.755 256.063V255.799C263.755 253.644 264.582 251.577 266.053 250.053C267.525 248.529 269.521 247.672 271.602 247.672L275.285 244.779L282.155 247.673L283.915 247.673L283.915 256.064Z" fill="#2F2E41"/>
<path d="M330.071 248.981L336.627 248.98L339.746 222.791L330.07 222.792L330.071 248.981Z" fill="#A0616A"/>
<path d="M329.84 256.064L350 256.063V255.799C350 253.644 349.173 251.577 347.702 250.053C346.23 248.529 344.234 247.672 342.153 247.672L338.47 244.779L331.6 247.673L329.84 247.673L329.84 256.064Z" fill="#2F2E41"/>
<path d="M273.721 203.547C273.817 202.052 274.587 193.788 274.587 193.788L276.431 176.261L279.681 129.802L279.893 126.761L296.917 123.376L308.553 117.599L322.382 122.178L333.151 126.36C333.151 126.36 333.169 128.151 333.252 130.313C333.363 133.145 333.556 136.615 334.017 137.518C334.787 139.112 334.594 147.673 334.594 147.673C334.594 147.673 335.359 165.09 336.322 166.999C337.286 168.909 337.479 172.886 337.189 173.683C336.899 174.481 338.153 195.397 338.153 195.397C338.153 195.397 341.371 232.411 339.352 237.992C337.332 243.574 329.703 239.918 329.703 239.918C329.703 239.918 330.071 238.428 327.859 237.726C325.646 237.024 318.906 184.54 318.906 184.54C318.906 184.54 317.653 173.779 316.5 170.695C315.348 167.61 314.287 158.945 314.287 158.945C314.287 158.945 307.17 144.603 307.077 141.414C307.077 141.414 306.146 138.43 305.266 141.714C304.385 144.999 301.79 152.867 301.79 152.867L299.259 162.53L296.281 176.968L294.354 189.123C294.354 189.123 291.469 205.256 291.008 205.953C290.547 206.65 291.008 221.388 291.008 221.388C291.008 221.388 288.776 233.94 285.623 236.131C282.47 238.323 274.116 236.166 274.116 236.166C274.116 236.166 273.624 205.041 273.721 203.547Z" fill="#121535"/>
<path d="M280.984 84.389L284.769 96.196L280.099 101.954L282.155 104.145L280.638 107.244L276.683 139.719L298.368 148.236L305.67 138.754L311.428 148.236L336.519 141.886L330.12 100.474V97.7664L328.314 92.5385V81.4716L333.085 48.5289L318.845 43.363L312.036 37.7821L309.833 45.631L300.452 43.9029L300.207 38.0061L293.03 45.0296L286.986 46.8148L279.749 48.5289L278.826 50.9161L280.67 50.4389L280.371 81.4959L280.984 84.389Z" fill="#121535"/>
<path d="M274.502 127.589L278.144 91.0793L279.105 76.0533L268.911 74.1443C268.911 74.1443 269.315 84.8884 267.98 90.9503C266.662 96.9322 267.805 126.787 267.886 127.586C267.138 128.279 266.61 129.191 266.373 130.202C266.136 131.213 266.201 132.274 266.559 133.246C266.917 134.218 267.551 135.054 268.378 135.644C269.205 136.234 270.186 136.55 271.19 136.551C272.194 136.551 273.175 136.236 274.003 135.647C274.83 135.057 275.465 134.222 275.824 133.25C276.183 132.279 276.249 131.218 276.013 130.207C275.777 129.196 275.25 128.283 274.502 127.589Z" fill="#A0616A"/>
<path d="M264.559 98.6446L267.394 99.2509L277.121 101.337L277.66 101.452L278.808 96.7253L280.14 95.2548L282.676 81.4952L282.81 80.779L286.64 72.2998L289.291 46.8145L279.435 48.6478C279.384 48.7003 279.338 48.7576 279.292 48.8149C277.877 50.4763 276.867 52.7871 275.217 55.1122C269.846 62.6796 265.725 81.0655 265.887 91.1393C265.891 91.3016 265.73 91.4783 265.536 91.6597C264.623 92.5298 264.026 93.6997 263.848 94.9721C263.67 96.2445 263.921 97.5416 264.559 98.6446Z" fill="#121535"/>
<path d="M337.87 127.589L334.228 91.0793L333.267 76.0533L343.46 74.1443C343.46 74.1443 343.056 84.8884 344.392 90.9503C345.709 96.9322 344.566 126.787 344.485 127.586C345.234 128.279 345.761 129.191 345.998 130.202C346.236 131.213 346.171 132.274 345.813 133.246C345.455 134.217 344.82 135.054 343.993 135.644C343.166 136.234 342.186 136.55 341.182 136.551C340.177 136.551 339.197 136.236 338.369 135.647C337.542 135.057 336.906 134.222 336.547 133.25C336.188 132.279 336.123 131.218 336.359 130.207C336.595 129.196 337.122 128.283 337.87 127.589Z" fill="#A0616A"/>
<path d="M347.813 98.6446L344.978 99.2509L335.251 101.337L334.711 101.452L333.564 96.7253L332.231 95.2548L329.696 81.4952L329.562 80.779L325.731 72.2998L326.607 46.8145L332.937 48.6478C332.988 48.7003 333.034 48.7576 333.08 48.8149C334.495 50.4763 335.505 52.7871 337.155 55.1122C342.525 62.6796 346.646 81.0655 346.485 91.1393C346.48 91.3016 346.642 91.4783 346.835 91.6597C347.749 92.5298 348.346 93.6997 348.524 94.9721C348.702 96.2445 348.45 97.5416 347.813 98.6446Z" fill="#121535"/>
<path d="M295.576 50.5859L300.207 38.0065L312.036 37.7821L315.961 50.5859L330.069 132.211C330.069 132.211 286.847 144.678 287.286 129.693C287.747 113.937 289.826 93.0091 289.826 93.0091L295.576 50.5859Z" fill="#CBDCEB"/>
<path d="M305.857 34.4866C313.553 34.4866 319.791 28.0254 319.791 20.055C319.791 12.0846 313.553 5.62329 305.857 5.62329C298.161 5.62329 291.922 12.0846 291.922 20.055C291.922 28.0254 298.161 34.4866 305.857 34.4866Z" fill="#A0616A"/>
<path d="M291.101 9.58627C293.369 7.02898 296.207 2.34791 304.801 0.382209C315.421 -2.04674 320.44 7.88938 317.762 8.05225C325.593 10.5083 320.562 27.2928 318.317 25.8852C318.298 25.8712 318.279 25.8563 318.262 25.8403C317.054 24.9194 316.041 23.7532 315.283 22.4129C314.525 21.0727 314.04 19.5865 313.855 18.0453L313.429 14.0734C313.368 17.305 310.179 17.7325 306.921 16.5423C307.114 15.8338 307.481 15.1895 307.988 14.6731C308.494 14.1567 309.122 13.7859 309.809 13.5974C307.538 15.73 304.652 17.0301 301.598 17.2976C301.758 16.4885 302.083 15.7242 302.552 15.0561C303.021 14.3879 303.622 13.8314 304.316 13.4239L304.187 13.2931C302.915 14.4044 301.454 15.261 299.879 15.8193C298.083 16.3525 295.931 16.064 294.701 14.6079C294.369 14.2061 294.119 13.7396 293.965 13.2359C294.231 15.7952 292.573 18.7167 291.286 18.2151C290.215 17.9995 289.59 11.2887 291.101 9.58627Z" fill="#2F2E41"/>
</svg>
