<svg width="350" height="274" viewBox="0 0 350 274" fill="none" xmlns="http://www.w3.org/2000/svg">
<path d="M129.421 115.095H2.35312C1.72926 115.094 1.13116 114.838 0.690028 114.384C0.248892 113.929 0.000732551 113.312 0 112.668V80.1632C0.000732551 79.5199 0.248892 78.9031 0.690028 78.4482C1.13116 77.9932 1.72926 77.7373 2.35312 77.7366H129.421C130.045 77.7373 130.643 77.9932 131.085 78.4482C131.526 78.9031 131.774 79.5199 131.775 80.1632V112.668C131.774 113.312 131.526 113.929 131.085 114.384C130.643 114.838 130.045 115.094 129.421 115.095ZM2.35312 78.7072C1.97879 78.7076 1.61992 78.8612 1.35523 79.1341C1.09055 79.4071 0.941652 79.7772 0.941244 80.1632V112.668C0.941654 113.054 1.09055 113.425 1.35523 113.697C1.61992 113.97 1.97879 114.124 2.35312 114.124H129.421C129.796 114.124 130.155 113.97 130.419 113.697C130.684 113.425 130.833 113.054 130.833 112.668V80.1632C130.833 79.7772 130.684 79.4071 130.419 79.1341C130.155 78.8612 129.796 78.7077 129.421 78.7072L2.35312 78.7072Z" fill="#3F3D56"/>
<path d="M21.3879 88.1621C20.8352 88.1621 20.3053 88.3452 19.9145 88.671C19.5237 88.9969 19.3042 89.4389 19.3042 89.8997C19.3042 90.3606 19.5237 90.8025 19.9145 91.1284C20.3053 91.4543 20.8352 91.6373 21.3879 91.6373H119.619C120.171 91.6373 120.701 91.4543 121.092 91.1284C121.483 90.8025 121.702 90.3606 121.702 89.8997C121.702 89.4389 121.483 88.9969 121.092 88.671C120.701 88.3452 120.171 88.1621 119.619 88.1621H21.3879Z" fill="#E6E6E6"/>
<path d="M21.9403 98.5879C21.2412 98.5879 20.5707 98.7252 20.0763 98.9696C19.5819 99.214 19.3042 99.5455 19.3042 99.8911C19.3042 100.237 19.5819 100.568 20.0763 100.813C20.5707 101.057 21.2412 101.194 21.9403 101.194H75.4163C75.7629 101.195 76.1061 101.161 76.4265 101.096C76.7469 101.03 77.0381 100.934 77.2834 100.813C77.5287 100.692 77.7233 100.549 77.8561 100.39C77.9889 100.232 78.0572 100.062 78.0572 99.8911C78.0572 99.7198 77.9889 99.5501 77.8561 99.3918C77.7233 99.2336 77.5287 99.0898 77.2834 98.9687C77.0381 98.8477 76.7469 98.7518 76.4265 98.6864C76.1061 98.6211 75.7629 98.5876 75.4163 98.5879H21.9403Z" fill="#E6E6E6"/>
<path d="M74.0223 231.515H17.4645C16.8397 231.514 16.2407 231.259 15.7989 230.807C15.3572 230.354 15.1086 229.741 15.1079 229.101V168.768C15.1086 168.128 15.3572 167.515 15.7989 167.062C16.2407 166.61 16.8397 166.355 17.4645 166.354H74.0223C74.6471 166.355 75.2461 166.61 75.6879 167.062C76.1297 167.515 76.3782 168.128 76.3789 168.768V229.101C76.3782 229.741 76.1297 230.354 75.6879 230.807C75.2461 231.259 74.6471 231.514 74.0223 231.515ZM17.4645 167.32C17.0896 167.32 16.7302 167.473 16.4651 167.745C16.2 168.016 16.0509 168.384 16.0505 168.768V229.101C16.0509 229.485 16.2 229.853 16.4651 230.124C16.7302 230.396 17.0896 230.549 17.4645 230.549H74.0223C74.3972 230.549 74.7566 230.396 75.0217 230.124C75.2868 229.853 75.4359 229.485 75.4363 229.101V168.768C75.4359 168.384 75.2868 168.016 75.0217 167.745C74.7566 167.473 74.3972 167.32 74.0223 167.32H17.4645Z" fill="#3F3D56"/>
<path d="M30.1189 178.518C29.6994 178.518 29.2971 178.701 29.0004 179.027C28.7038 179.353 28.5371 179.795 28.5371 180.255C28.5371 180.716 28.7038 181.158 29.0004 181.484C29.2971 181.81 29.6994 181.993 30.1189 181.993H62.2071C62.6266 181.993 63.029 181.81 63.3256 181.484C63.6223 181.158 63.7889 180.716 63.7889 180.255C63.7889 179.795 63.6223 179.353 63.3256 179.027C63.029 178.701 62.6266 178.518 62.2071 178.518H30.1189Z" fill="#E6E6E6"/>
<path d="M30.1217 188.075C29.9137 188.074 29.7077 188.119 29.5155 188.206C29.3233 188.293 29.1486 188.421 29.0014 188.582C28.8542 188.744 28.7375 188.935 28.6578 189.147C28.5781 189.358 28.5371 189.584 28.5371 189.812C28.5371 190.041 28.5781 190.267 28.6578 190.478C28.7375 190.689 28.8542 190.881 29.0014 191.042C29.1486 191.203 29.3233 191.331 29.5155 191.418C29.7077 191.506 29.9137 191.55 30.1217 191.55H62.2072C62.6267 191.55 63.029 191.367 63.3256 191.041C63.6223 190.715 63.7889 190.273 63.7889 189.812C63.7889 189.351 63.6223 188.909 63.3256 188.584C63.029 188.258 62.6267 188.075 62.2072 188.075H30.1217Z" fill="#E6E6E6"/>
<path d="M30.1189 196.763C29.6994 196.763 29.2971 196.991 29.0004 197.399C28.7038 197.806 28.5371 198.359 28.5371 198.935C28.5371 199.511 28.7038 200.063 29.0004 200.47C29.2971 200.878 29.6994 201.107 30.1189 201.107H62.2071C62.6266 201.107 63.029 200.878 63.3256 200.47C63.6223 200.063 63.7889 199.511 63.7889 198.935C63.7889 198.359 63.6223 197.806 63.3256 197.399C63.029 196.991 62.6266 196.763 62.2071 196.763H30.1189Z" fill="#E6E6E6"/>
<path d="M30.1217 207.188C29.9137 207.188 29.7077 207.232 29.5155 207.32C29.3233 207.407 29.1486 207.535 29.0014 207.696C28.8542 207.857 28.7375 208.049 28.6578 208.26C28.5781 208.471 28.5371 208.697 28.5371 208.926C28.5371 209.154 28.5781 209.38 28.6578 209.592C28.7375 209.803 28.8542 209.994 29.0014 210.156C29.1486 210.317 29.3233 210.445 29.5155 210.532C29.7077 210.619 29.9137 210.664 30.1217 210.663H62.2072C62.6267 210.663 63.029 210.48 63.3256 210.155C63.6223 209.829 63.7889 209.387 63.7889 208.926C63.7889 208.465 63.6223 208.023 63.3256 207.697C63.029 207.371 62.6267 207.188 62.2072 207.188H30.1217Z" fill="#E6E6E6"/>
<path d="M166.897 29.0836H224.23C224.863 29.0844 225.47 29.3423 225.918 29.8009C226.366 30.2594 226.618 30.8811 226.619 31.5296V92.6667C226.618 93.3151 226.366 93.9368 225.918 94.3954C225.47 94.8539 224.863 95.1119 224.23 95.1126H166.897C166.264 95.1119 165.657 94.8539 165.209 94.3954C164.761 93.9368 164.509 93.3151 164.508 92.6667V31.5296C164.509 30.8811 164.761 30.2594 165.209 29.8009C165.657 29.3423 166.264 29.0844 166.897 29.0836ZM224.23 94.1342C224.61 94.1338 224.974 93.9791 225.243 93.7039C225.512 93.4288 225.663 93.0558 225.663 92.6667V31.5296C225.663 31.1405 225.512 30.7674 225.243 30.4923C224.974 30.2172 224.61 30.0624 224.23 30.062H166.897C166.517 30.0624 166.153 30.2172 165.884 30.4923C165.615 30.7674 165.464 31.1405 165.464 31.5296V92.6667C165.464 93.0558 165.615 93.4288 165.884 93.7039C166.153 93.9791 166.517 94.1338 166.897 94.1342H224.23Z" fill="#3F3D56"/>
<path d="M211.607 82.9495C212.027 82.9495 212.429 82.7664 212.726 82.4405C213.023 82.1147 213.189 81.6727 213.189 81.2118C213.189 80.751 213.023 80.309 212.726 79.9832C212.429 79.6573 212.027 79.4742 211.607 79.4742H179.519C179.1 79.4742 178.697 79.6573 178.401 79.9832C178.104 80.309 177.938 80.751 177.938 81.2118C177.938 81.6727 178.104 82.1147 178.401 82.4405C178.697 82.7664 179.1 82.9495 179.519 82.9495H211.607Z" fill="#E6E6E6"/>
<path d="M211.607 72.5236C212.027 72.5236 212.429 72.3863 212.726 72.1419C213.023 71.8975 213.189 71.5661 213.189 71.2204C213.189 70.8748 213.023 70.5433 212.726 70.2989C212.429 70.0545 212.027 69.9172 211.607 69.9172H179.519C179.1 69.9172 178.697 70.0545 178.401 70.2989C178.104 70.5433 177.938 70.8748 177.938 71.2204C177.938 71.5661 178.104 71.8975 178.401 72.1419C178.697 72.3863 179.1 72.5236 179.519 72.5236H211.607Z" fill="#E6E6E6"/>
<path d="M211.457 62.9669C211.916 62.9669 212.357 62.7838 212.682 62.458C213.007 62.1321 213.189 61.6901 213.189 61.2293C213.189 60.7685 213.007 60.3265 212.682 60.0006C212.357 59.6748 211.916 59.4917 211.457 59.4917H176.313C175.853 59.4917 175.412 59.6748 175.088 60.0006C174.763 60.3265 174.58 60.7685 174.58 61.2293C174.58 61.6901 174.763 62.1321 175.088 62.458C175.412 62.7838 175.853 62.9669 176.313 62.9669H211.457Z" fill="#E6E6E6"/>
<path d="M211.419 53.4101C211.889 53.4101 212.339 53.1812 212.671 52.7739C213.003 52.3666 213.189 51.8141 213.189 51.2381C213.189 50.662 213.003 50.1095 212.671 49.7022C212.339 49.2949 211.889 49.066 211.419 49.066H175.511C175.041 49.066 174.591 49.2949 174.259 49.7022C173.927 50.1095 173.741 50.662 173.741 51.2381C173.741 51.8141 173.927 52.3666 174.259 52.7739C174.591 53.1812 175.041 53.4101 175.511 53.4101H211.419Z" fill="#E6E6E6"/>
<path d="M292.255 208.926H180.287C179.664 208.925 179.067 208.669 178.626 208.213C178.186 207.757 177.938 207.139 177.938 206.494V146.197C177.938 145.553 178.186 144.935 178.626 144.479C179.067 144.023 179.664 143.766 180.287 143.766H292.255C292.877 143.766 293.475 144.023 293.915 144.479C294.356 144.935 294.603 145.553 294.604 146.197V206.494C294.603 207.139 294.356 207.757 293.915 208.213C293.475 208.669 292.878 208.925 292.255 208.926ZM180.287 144.738C179.913 144.739 179.555 144.893 179.291 145.166C179.026 145.44 178.878 145.811 178.877 146.197V206.494C178.878 206.881 179.026 207.252 179.291 207.525C179.555 207.799 179.913 207.953 180.287 207.953H292.255C292.628 207.953 292.987 207.799 293.251 207.525C293.515 207.252 293.664 206.881 293.664 206.494V146.197C293.664 145.811 293.515 145.44 293.251 145.166C292.987 144.893 292.628 144.739 292.255 144.738H180.287Z" fill="#3F3D56"/>
<path d="M220.67 158.535C220.459 158.535 220.251 158.579 220.056 158.667C219.861 158.754 219.684 158.882 219.535 159.043C219.386 159.204 219.267 159.396 219.187 159.607C219.106 159.818 219.064 160.044 219.064 160.273C219.064 160.501 219.106 160.727 219.187 160.938C219.267 161.149 219.386 161.341 219.535 161.503C219.684 161.664 219.861 161.792 220.056 161.879C220.251 161.966 220.459 162.011 220.67 162.01H281.251C281.676 162.01 282.083 161.827 282.384 161.501C282.685 161.176 282.853 160.734 282.853 160.273C282.853 159.812 282.685 159.37 282.384 159.044C282.083 158.718 281.676 158.535 281.251 158.535H220.67Z" fill="#E6E6E6"/>
<path d="M220.687 168.092C220.474 168.092 220.263 168.136 220.066 168.223C219.869 168.311 219.69 168.438 219.54 168.6C219.389 168.761 219.27 168.953 219.188 169.164C219.106 169.375 219.064 169.601 219.064 169.83C219.064 170.058 219.106 170.284 219.188 170.495C219.27 170.706 219.389 170.898 219.54 171.059C219.69 171.221 219.869 171.349 220.066 171.436C220.263 171.523 220.474 171.568 220.687 171.567H253.536C253.966 171.567 254.378 171.384 254.681 171.058C254.985 170.732 255.156 170.29 255.156 169.83C255.156 169.369 254.985 168.927 254.681 168.601C254.378 168.275 253.966 168.092 253.536 168.092H220.687Z" fill="#E6E6E6"/>
<path d="M191.887 184.599C190.675 184.599 189.688 185.184 189.688 185.902C189.688 186.621 190.675 187.206 191.887 187.206H280.654C281.867 187.206 282.853 186.621 282.853 185.902C282.853 185.184 281.867 184.599 280.654 184.599H191.887Z" fill="#E6E6E6"/>
<path d="M191.887 194.156C190.675 194.156 189.688 194.741 189.688 195.459C189.688 196.178 190.675 196.763 191.887 196.763H280.654C281.867 196.763 282.853 196.178 282.853 195.459C282.853 194.741 281.867 194.156 280.654 194.156H191.887Z" fill="#E6E6E6"/>
<path d="M168.835 273.217H111.502C110.869 273.217 110.262 272.961 109.814 272.506C109.366 272.051 109.114 271.434 109.113 270.791V238.285C109.114 237.642 109.366 237.025 109.814 236.57C110.262 236.115 110.869 235.86 111.502 235.859H168.835C169.468 235.86 170.075 236.115 170.523 236.57C170.971 237.025 171.223 237.642 171.224 238.285V270.791C171.223 271.434 170.971 272.051 170.523 272.506C170.075 272.961 169.468 273.217 168.835 273.217ZM111.502 236.829C111.122 236.83 110.758 236.983 110.489 237.256C110.22 237.529 110.069 237.899 110.069 238.285V270.791C110.069 271.177 110.22 271.547 110.489 271.82C110.758 272.093 111.122 272.246 111.502 272.247H168.835C169.215 272.246 169.579 272.093 169.848 271.82C170.117 271.547 170.268 271.177 170.268 270.791V238.285C170.268 237.899 170.117 237.529 169.848 237.256C169.579 236.983 169.215 236.83 168.835 236.829H111.502Z" fill="#3F3D56"/>
<path d="M282.015 50.8038H350V74.2192H347.425V80.3431L341.588 74.2192H282.015V50.8038Z" fill="#BBB9B9"/>
<path d="M348.321 71.6551H282.854V53.4103H334.064C337.844 53.4145 341.468 54.91 344.141 57.5686C346.813 60.2272 348.317 63.8318 348.321 67.5917V71.6551Z" fill="white"/>
<path d="M326.498 83.8182H259.352V107.233H261.895V113.358L267.661 107.233H326.498V83.8182Z" fill="#BBB9B9"/>
<path d="M325.66 105.538H272.516C269.471 105.535 266.552 104.315 264.399 102.145C262.246 99.9757 261.035 97.0343 261.031 93.9662V87.2936H325.66V105.538Z" fill="white"/>
<path d="M321.463 92.5062H266.067V93.375H321.463V92.5062Z" fill="#3449FF"/>
<path d="M321.463 95.1127H266.067V96.8503H321.463V95.1127Z" fill="#E6E6E6"/>
<path d="M341.607 58.6229H287.051V60.3605H341.607V58.6229Z" fill="#3449FF"/>
<path d="M341.607 61.2294H287.051V62.967H341.607V61.2294Z" fill="#E6E6E6"/>
<path d="M32.7334 16.0516H83.0931V32.5801H81.1856V36.9029L76.8617 32.5801H32.7334V16.0516Z" fill="#BBB9B9"/>
<path d="M82.2543 30.8212H34.4126V17.7892H71.8356C74.5979 17.7922 77.2461 18.8604 79.1993 20.7594C81.1525 22.6584 82.2512 25.2331 82.2543 27.9187V30.8212Z" fill="white"/>
<path d="M66.3065 40.3781H15.9468V56.9064H17.8543V61.2293L22.1782 56.9064H66.3065V40.3781Z" fill="#8D8B8B" fill-opacity="0.6"/>
<path d="M64.6284 55.1478H25.9786C23.7641 55.1453 21.6411 54.2736 20.0752 52.724C18.5093 51.1744 17.6285 49.0734 17.626 46.8819V42.1157H64.6284V55.1478Z" fill="white"/>
<path d="M62.1105 45.5908H21.8228V47.3284H62.1105V45.5908Z" fill="#3449FF"/>
<path d="M76.3791 21.2644H36.9307V22.1332H76.3791V21.2644Z" fill="#3449FF"/>
<path d="M76.3791 23.8708H36.9307V24.7397H76.3791V23.8708Z" fill="#E6E6E6"/>
<path d="M104.916 129.865H155.276V146.393H153.368V150.716L149.044 146.393H104.916V129.865Z" fill="#BBB9B9"/>
<path d="M154.436 145.503H106.595V131.602H144.018C146.78 131.606 149.428 132.745 151.381 134.771C153.335 136.796 154.433 139.543 154.436 142.407V145.503Z" fill="white"/>
<path d="M138.489 154.191H88.1294V171.408H90.0369V175.911L94.3608 171.408H138.489V154.191Z" fill="#BBB9B9"/>
<path d="M136.811 169.83H97.471C95.217 169.827 93.056 168.956 91.4622 167.406C89.8683 165.856 88.9718 163.755 88.9692 161.564V156.798H136.811V169.83Z" fill="white"/>
<path d="M133.453 160.273H93.1655V162.01H133.453V160.273Z" fill="#3449FF"/>
<path d="M133.453 162.879H93.1655V163.748H133.453V162.879Z" fill="#E6E6E6"/>
<path d="M148.561 135.077H108.273V136.815H148.561V135.077Z" fill="#3449FF"/>
<path d="M148.561 138.553H108.273V139.422H148.561V138.553Z" fill="#E6E6E6"/>
<path d="M148.561 140.29H108.273V141.159H148.561V140.29Z" fill="#E6E6E6"/>
<path d="M114.988 224.481C131.135 170.115 163.682 175.778 177.937 185.405" stroke="black"/>
<path d="M294.746 154.548C333.66 140.304 329.085 113.102 321.933 101.282" stroke="black"/>
<path d="M132.166 96.2616C188.318 93.066 191.377 121.516 185.888 136.14" stroke="black"/>
<path d="M36.1048 158.174C35.5215 119.979 53.1985 108.686 62.1099 107.814" stroke="black"/>
<path d="M76.6051 204.71C94.6194 173.92 97.7272 163.526 97.0293 162.177" stroke="black"/>
<path d="M132.614 122.083C134.933 100.482 154.843 78.3901 164.508 70.0443" stroke="black"/>
<path d="M109.952 72.5623C107.877 55.8391 90.0626 38.7358 81.415 32.2745" stroke="black"/>
<path d="M138.489 224.481C138.123 199.047 134.979 173.036 133.453 163.21" stroke="black"/>
<path opacity="0.3" d="M155.949 169.708C171.151 169.708 183.475 156.951 183.475 141.215C183.475 125.479 171.151 112.723 155.949 112.723C140.747 112.723 128.423 125.479 128.423 141.215C128.423 156.951 140.747 169.708 155.949 169.708Z" fill="#F8A45B"/>
<path opacity="0.3" d="M155.949 160.211C166.083 160.211 174.299 151.706 174.299 141.216C174.299 130.725 166.083 122.221 155.949 122.221C145.814 122.221 137.598 130.725 137.598 141.216C137.598 151.706 145.814 160.211 155.949 160.211Z" fill="#F8A45B"/>
<path d="M155.948 154.407C162.986 154.407 168.692 148.501 168.692 141.216C168.692 133.931 162.986 128.025 155.948 128.025C148.911 128.025 143.205 133.931 143.205 141.216C143.205 148.501 148.911 154.407 155.948 154.407Z" fill="#F8A45B"/>
<path opacity="0.3" d="M140.449 254.355C155.651 254.355 167.975 241.598 167.975 225.862C167.975 210.126 155.651 197.37 140.449 197.37C125.247 197.37 112.923 210.126 112.923 225.862C112.923 241.598 125.247 254.355 140.449 254.355Z" fill="#F8A45B"/>
<path opacity="0.3" d="M140.449 244.858C150.583 244.858 158.799 236.354 158.799 225.863C158.799 215.372 150.583 206.868 140.449 206.868C130.314 206.868 122.098 215.372 122.098 225.863C122.098 236.354 130.314 244.858 140.449 244.858Z" fill="#F8A45B"/>
<path d="M140.448 239.054C147.486 239.054 153.192 233.148 153.192 225.863C153.192 218.578 147.486 212.672 140.448 212.672C133.411 212.672 127.705 218.578 127.705 225.863C127.705 233.148 133.411 239.054 140.448 239.054Z" fill="#F8A45B"/>
<path opacity="0.3" d="M300.259 195.711C315.461 195.711 327.785 182.954 327.785 167.218C327.785 151.482 315.461 138.726 300.259 138.726C285.057 138.726 272.733 151.482 272.733 167.218C272.733 182.954 285.057 195.711 300.259 195.711Z" fill="#F8A45B"/>
<path opacity="0.3" d="M300.258 186.214C310.393 186.214 318.609 177.709 318.609 167.219C318.609 156.728 310.393 148.224 300.258 148.224C290.124 148.224 281.908 156.728 281.908 167.219C281.908 177.709 290.124 186.214 300.258 186.214Z" fill="#F8A45B"/>
<path d="M300.258 180.41C307.296 180.41 313.001 174.504 313.001 167.219C313.001 159.934 307.296 154.028 300.258 154.028C293.22 154.028 287.515 159.934 287.515 167.219C287.515 174.504 293.22 180.41 300.258 180.41Z" fill="#F8A45B"/>
<path opacity="0.3" d="M32.4843 188.518C47.6863 188.518 60.0101 175.762 60.0101 160.026C60.0101 144.29 47.6863 131.534 32.4843 131.534C17.2822 131.534 4.9585 144.29 4.9585 160.026C4.9585 175.762 17.2822 188.518 32.4843 188.518Z" fill="#F8A45B"/>
<path opacity="0.3" d="M32.4838 179.021C42.6185 179.021 50.8343 170.517 50.8343 160.026C50.8343 149.536 42.6185 141.031 32.4838 141.031C22.3491 141.031 14.1333 149.536 14.1333 160.026C14.1333 170.517 22.3491 179.021 32.4838 179.021Z" fill="#F8A45B"/>
<path d="M32.4837 173.218C39.5216 173.218 45.2271 167.312 45.2271 160.027C45.2271 152.742 39.5216 146.836 32.4837 146.836C25.4457 146.836 19.7402 152.742 19.7402 160.027C19.7402 167.312 25.4457 173.218 32.4837 173.218Z" fill="#F8A45B"/>
<path opacity="0.3" d="M85.3979 57.3979C100.6 57.3979 112.924 44.6414 112.924 28.9055C112.924 13.1696 100.6 0.413086 85.3979 0.413086C70.1958 0.413086 57.8721 13.1696 57.8721 28.9055C57.8721 44.6414 70.1958 57.3979 85.3979 57.3979Z" fill="#F8A45B"/>
<path opacity="0.3" d="M85.3974 47.901C95.5321 47.901 103.748 39.3967 103.748 28.9061C103.748 18.4154 95.5321 9.91113 85.3974 9.91113C75.2627 9.91113 67.0469 18.4154 67.0469 28.9061C67.0469 39.3967 75.2627 47.901 85.3974 47.901Z" fill="#F8A45B"/>
<path d="M85.3967 42.0972C92.4347 42.0972 98.1402 36.1914 98.1402 28.9063C98.1402 21.6211 92.4347 15.7153 85.3967 15.7153C78.3587 15.7153 72.6533 21.6211 72.6533 28.9063C72.6533 36.1914 78.3587 42.0972 85.3967 42.0972Z" fill="#F8A45B"/>
<path d="M118.814 244.547C118.244 244.547 117.698 244.73 117.296 245.056C116.893 245.381 116.667 245.823 116.667 246.284C116.667 246.745 116.893 247.187 117.296 247.513C117.698 247.839 118.244 248.022 118.814 248.022H162.362C162.931 248.022 163.477 247.839 163.88 247.513C164.283 247.187 164.509 246.745 164.509 246.284C164.509 245.823 164.283 245.381 163.88 245.056C163.477 244.73 162.931 244.547 162.362 244.547H118.814Z" fill="#E6E6E6"/>
<path d="M118.817 254.972C118.535 254.972 118.256 255.017 117.995 255.104C117.734 255.191 117.497 255.319 117.297 255.48C117.097 255.642 116.939 255.833 116.831 256.044C116.723 256.255 116.667 256.481 116.667 256.71C116.667 256.938 116.723 257.165 116.831 257.376C116.939 257.587 117.097 257.778 117.297 257.94C117.497 258.101 117.734 258.229 117.995 258.316C118.256 258.403 118.535 258.448 118.817 258.447H162.362C162.931 258.447 163.477 258.264 163.88 257.939C164.283 257.613 164.509 257.171 164.509 256.71C164.509 256.249 164.283 255.807 163.88 255.481C163.477 255.155 162.931 254.972 162.362 254.972H118.817Z" fill="#E6E6E6"/>
</svg>
