<svg width="350" height="303" viewBox="0 0 350 303" fill="none" xmlns="http://www.w3.org/2000/svg">
<path d="M149.84 66.6993L224.037 13.1025L317.215 96.0911L170.546 151.417L268.038 186.86L107.565 249.101L119.644 71.8861L144.664 133.263L200.743 12.238L279.254 171.299L108.154 240.457L313.764 78.8018L170.546 133.263L130.859 78.8018L22.1519 100.413L136.899 143.637L87.7215 235.27L35.956 81.3952L193.841 1" stroke="black"/>
<path d="M21.2658 97.5823C17.0598 97.5823 12.9483 98.7775 9.45118 101.017C5.95404 103.256 3.22832 106.439 1.61876 110.163C0.00919602 113.887 -0.411914 117.985 0.408633 121.938C1.22918 125.891 3.25455 129.523 6.22863 132.373C9.20271 135.223 12.9919 137.164 17.1171 137.95C21.2422 138.737 25.5181 138.333 29.4039 136.79C33.2897 135.248 36.611 132.636 38.9477 129.284C41.2844 125.933 42.5316 121.993 42.5316 117.962C42.5152 112.562 40.2694 107.387 36.2848 103.569C32.3003 99.7503 26.9008 97.5981 21.2658 97.5823ZM21.2658 103.696C22.5276 103.696 23.7611 104.055 24.8102 104.727C25.8594 105.398 26.6771 106.353 27.1599 107.47C27.6428 108.588 27.7691 109.817 27.523 111.003C27.2768 112.189 26.6692 113.278 25.777 114.133C24.8848 114.988 23.748 115.571 22.5104 115.807C21.2729 116.042 19.9901 115.921 18.8244 115.459C17.6586 114.996 16.6623 114.212 15.9612 113.207C15.2602 112.201 14.8861 111.019 14.8861 109.81C14.8917 108.19 15.5657 106.638 16.7609 105.493C17.9561 104.347 19.5755 103.702 21.2658 103.696ZM21.2658 133.129C18.7456 133.118 16.2662 132.518 14.0427 131.381C11.8193 130.244 9.91885 128.604 8.50633 126.604C8.60858 122.528 17.0127 120.284 21.2658 120.284C25.519 120.284 33.9231 122.528 34.0253 126.604C32.6112 128.603 30.7104 130.241 28.4873 131.378C26.2642 132.515 23.7856 133.116 21.2658 133.129Z" fill="#FABB84"/>
<path d="M133.798 76.3164C129.417 76.3164 125.134 77.5376 121.491 79.8257C117.848 82.1137 115.009 85.3658 113.332 89.1707C111.656 92.9755 111.217 97.1623 112.072 101.202C112.926 105.241 115.036 108.951 118.134 111.863C121.232 114.775 125.179 116.758 129.476 117.562C133.773 118.365 138.227 117.953 142.275 116.377C146.323 114.801 149.782 112.132 152.217 108.708C154.651 105.283 155.95 101.258 155.95 97.1392C155.933 91.6216 153.593 86.3346 149.443 82.4331C145.292 78.5316 139.668 76.3326 133.798 76.3164ZM133.798 82.5632C135.112 82.5632 136.397 82.9296 137.49 83.616C138.583 84.3024 139.435 85.2781 139.938 86.4195C140.441 87.561 140.572 88.817 140.316 90.0288C140.059 91.2405 139.426 92.3536 138.497 93.2273C137.568 94.1009 136.383 94.6959 135.094 94.9369C133.805 95.1779 132.469 95.0542 131.255 94.5814C130.04 94.1086 129.003 93.3079 128.272 92.2806C127.542 91.2533 127.152 90.0456 127.152 88.8101C127.158 87.155 127.86 85.5693 129.105 84.399C130.35 83.2287 132.037 82.5688 133.798 82.5632ZM133.798 112.636C131.173 112.625 128.59 112.012 126.274 110.85C123.958 109.688 121.978 108.013 120.507 105.969C120.613 101.804 129.368 99.5118 133.798 99.5118C138.228 99.5118 146.983 101.804 147.089 105.969C145.616 108.011 143.636 109.685 141.32 110.847C139.005 112.009 136.423 112.623 133.798 112.636Z" fill="#FABB84"/>
<path d="M212.659 14.291C208.278 14.291 203.995 15.5122 200.352 17.8003C196.709 20.0883 193.87 23.3404 192.193 27.1453C190.516 30.9501 190.078 35.1369 190.932 39.1761C191.787 43.2153 193.897 46.9256 196.995 49.8377C200.093 52.7498 204.04 54.733 208.337 55.5365C212.634 56.3399 217.088 55.9276 221.136 54.3515C225.184 52.7755 228.643 50.1066 231.077 46.6823C233.511 43.258 234.811 39.2322 234.811 35.1138C234.793 29.5962 232.454 24.3092 228.304 20.4077C224.153 16.5062 218.528 14.3072 212.659 14.291ZM212.659 20.5378C213.973 20.5378 215.258 20.9042 216.351 21.5906C217.444 22.277 218.295 23.2527 218.798 24.3941C219.301 25.5356 219.433 26.7916 219.177 28.0034C218.92 29.2152 218.287 30.3282 217.358 31.2019C216.428 32.0755 215.244 32.6705 213.955 32.9115C212.666 33.1525 211.33 33.0288 210.116 32.556C208.901 32.0832 207.863 31.2825 207.133 30.2552C206.403 29.228 206.013 28.0202 206.013 26.7847C206.019 25.1296 206.721 23.5439 207.966 22.3736C209.211 21.2033 210.898 20.5434 212.659 20.5378ZM212.659 50.6108C210.033 50.5995 207.451 49.9864 205.135 48.8245C202.819 47.6627 200.839 45.9872 199.368 43.9435C199.474 39.7789 208.228 37.4864 212.659 37.4864C217.089 37.4864 225.843 39.7789 225.95 43.9435C224.477 45.9857 222.497 47.66 220.181 48.8216C217.865 49.9833 215.284 50.5973 212.659 50.6108Z" fill="#FABB84"/>
<path d="M328.734 97.5823C324.528 97.5823 320.417 98.7775 316.919 101.017C313.422 103.256 310.697 106.439 309.087 110.163C307.477 113.887 307.056 117.985 307.877 121.938C308.697 125.891 310.723 129.523 313.697 132.373C316.671 135.223 320.46 137.164 324.585 137.95C328.711 138.737 332.986 138.333 336.872 136.79C340.758 135.248 344.079 132.636 346.416 129.284C348.753 125.933 350 121.993 350 117.962C349.983 112.562 347.738 107.387 343.753 103.569C339.769 99.7503 334.369 97.5981 328.734 97.5823ZM328.734 103.696C329.996 103.696 331.229 104.055 332.278 104.727C333.328 105.398 334.145 106.353 334.628 107.47C335.111 108.588 335.237 109.817 334.991 111.003C334.745 112.189 334.137 113.278 333.245 114.133C332.353 114.988 331.216 115.571 329.979 115.807C328.741 116.042 327.458 115.921 326.293 115.459C325.127 114.996 324.131 114.212 323.43 113.207C322.728 112.201 322.354 111.019 322.354 109.81C322.36 108.19 323.034 106.638 324.229 105.493C325.424 104.347 327.044 103.702 328.734 103.696ZM328.734 133.129C326.214 133.118 323.734 132.518 321.511 131.381C319.288 130.244 317.387 128.604 315.975 126.604C316.077 122.528 324.481 120.284 328.734 120.284C332.987 120.284 341.391 122.528 341.494 126.604C340.079 128.603 338.179 130.241 335.956 131.378C333.732 132.515 331.254 133.116 328.734 133.129Z" fill="#FABB84"/>
<path d="M156.392 160.494C152.099 160.494 147.902 161.715 144.332 164.003C140.762 166.291 137.979 169.543 136.336 173.348C134.693 177.153 134.263 181.34 135.101 185.379C135.938 189.418 138.006 193.128 141.042 196.04C144.078 198.952 147.946 200.936 152.157 201.739C156.368 202.543 160.733 202.13 164.7 200.554C168.667 198.978 172.057 196.309 174.443 192.885C176.828 189.461 178.101 185.435 178.101 181.316C178.084 175.799 175.792 170.512 171.724 166.61C167.657 162.709 162.145 160.51 156.392 160.494ZM156.392 166.74C157.681 166.74 158.94 167.107 160.011 167.793C161.082 168.48 161.916 169.455 162.409 170.597C162.902 171.738 163.031 172.994 162.78 174.206C162.529 175.418 161.908 176.531 160.998 177.405C160.087 178.278 158.926 178.873 157.663 179.114C156.4 179.355 155.09 179.231 153.9 178.759C152.71 178.286 151.693 177.485 150.977 176.458C150.262 175.431 149.88 174.223 149.88 172.987C149.886 171.332 150.574 169.747 151.794 168.576C153.014 167.406 154.667 166.746 156.392 166.74ZM156.392 196.813C153.82 196.802 151.289 196.189 149.019 195.027C146.749 193.865 144.809 192.19 143.367 190.146C143.472 185.982 152.051 183.689 156.392 183.689C160.734 183.689 169.313 185.982 169.418 190.146C167.974 192.188 166.034 193.863 163.764 195.024C161.495 196.186 158.965 196.8 156.392 196.813Z" fill="#FABB84"/>
<path d="M285.316 202.139C280.935 202.139 276.652 203.36 273.01 205.648C269.367 207.936 266.527 211.189 264.851 214.993C263.174 218.798 262.735 222.985 263.59 227.024C264.445 231.063 266.555 234.774 269.653 237.686C272.751 240.598 276.698 242.581 280.995 243.385C285.292 244.188 289.746 243.776 293.794 242.2C297.841 240.624 301.301 237.955 303.735 234.53C306.169 231.106 307.468 227.08 307.468 222.962C307.451 217.444 305.112 212.157 300.961 208.256C296.811 204.354 291.186 202.155 285.316 202.139ZM285.316 208.386C286.631 208.386 287.916 208.752 289.009 209.439C290.101 210.125 290.953 211.101 291.456 212.242C291.959 213.384 292.091 214.64 291.834 215.852C291.578 217.063 290.945 218.176 290.016 219.05C289.086 219.924 287.902 220.519 286.613 220.76C285.324 221.001 283.988 220.877 282.773 220.404C281.559 219.931 280.521 219.131 279.791 218.103C279.061 217.076 278.671 215.868 278.671 214.633C278.677 212.978 279.379 211.392 280.624 210.222C281.869 209.051 283.556 208.392 285.316 208.386ZM285.316 238.459C282.691 238.448 280.109 237.835 277.792 236.673C275.476 235.511 273.497 233.835 272.025 231.792C272.132 227.627 280.886 225.335 285.316 225.335C289.747 225.335 298.501 227.627 298.608 231.792C297.135 233.834 295.155 235.508 292.839 236.67C290.523 237.831 287.941 238.445 285.316 238.459Z" fill="#FABB84"/>
<path d="M99.2404 260.62C95.0345 260.62 90.9229 261.842 87.4258 264.13C83.9286 266.418 81.2029 269.67 79.5934 273.475C77.9838 277.279 77.5627 281.466 78.3832 285.505C79.2038 289.545 81.2292 293.255 84.2032 296.167C87.1773 299.079 90.9665 301.062 95.0917 301.866C99.2169 302.669 103.493 302.257 107.378 300.681C111.264 299.105 114.586 296.436 116.922 293.012C119.259 289.587 120.506 285.561 120.506 281.443C120.49 275.926 118.244 270.639 114.259 266.737C110.275 262.836 104.875 260.637 99.2404 260.62ZM99.2404 266.867C100.502 266.867 101.736 267.234 102.785 267.92C103.834 268.606 104.652 269.582 105.135 270.723C105.617 271.865 105.744 273.121 105.498 274.333C105.251 275.544 104.644 276.658 103.752 277.531C102.859 278.405 101.723 279 100.485 279.241C99.2475 279.482 97.9647 279.358 96.799 278.885C95.6333 278.413 94.6369 277.612 93.9359 276.585C93.2348 275.557 92.8607 274.35 92.8607 273.114C92.8663 271.459 93.5403 269.873 94.7355 268.703C95.9307 267.533 97.5502 266.873 99.2404 266.867ZM99.2404 296.94C96.7202 296.929 94.2408 296.316 92.0173 295.154C89.7939 293.992 87.8935 292.317 86.4809 290.273C86.5832 286.108 94.9873 283.816 99.2404 283.816C103.494 283.816 111.898 286.108 112 290.273C110.586 292.315 108.685 293.989 106.462 295.151C104.239 296.313 101.76 296.927 99.2404 296.94Z" fill="#FABB84"/>
</svg>
