<svg width="350" height="254" viewBox="0 0 350 254" fill="none" xmlns="http://www.w3.org/2000/svg">
<path d="M285.981 159.054H60.1386C58.5969 159.053 57.1189 158.419 56.0288 157.293C54.9387 156.168 54.3255 154.641 54.3237 153.049V9.21978C54.325 8.05327 54.7742 6.9349 55.5728 6.11003C56.3715 5.28517 57.4543 4.82117 58.5837 4.81982H287.462C288.611 4.82117 289.713 5.29319 290.525 6.13232C291.338 6.97144 291.795 8.10916 291.796 9.29585V153.049C291.794 154.641 291.181 156.168 290.091 157.293C289.001 158.419 287.523 159.053 285.981 159.054Z" fill="#F2F2F2"/>
<path d="M277.677 150.218H67.6675C64.589 150.218 62.0845 147.8 62.0845 144.827V20.0642C62.0845 17.8597 63.9404 16.0662 66.2216 16.0662H279.054C281.373 16.0662 283.26 17.8893 283.26 20.1301V144.827C283.26 147.8 280.755 150.218 277.677 150.218Z" fill="white"/>
<path d="M291.796 8.83636H54.3237V5.86128C54.326 4.30683 54.9417 2.81675 56.0358 1.71793C57.1298 0.619106 58.613 0.00128423 60.1598 0H285.96C287.507 0.00127675 288.99 0.619096 290.084 1.71792C291.178 2.81674 291.794 4.30683 291.796 5.86128V8.83636Z" fill="#CCCCCC"/>
<path d="M65.1888 5.62338C66.046 5.62338 66.7409 4.90407 66.7409 4.01677C66.7409 3.12946 66.046 2.41016 65.1888 2.41016C64.3316 2.41016 63.6367 3.12946 63.6367 4.01677C63.6367 4.90407 64.3316 5.62338 65.1888 5.62338Z" fill="white"/>
<path d="M70.621 5.62338C71.4782 5.62338 72.1731 4.90407 72.1731 4.01677C72.1731 3.12946 71.4782 2.41016 70.621 2.41016C69.7638 2.41016 69.0688 3.12946 69.0688 4.01677C69.0688 4.90407 69.7638 5.62338 70.621 5.62338Z" fill="white"/>
<path d="M76.829 5.62338C77.6862 5.62338 78.3811 4.90407 78.3811 4.01677C78.3811 3.12946 77.6862 2.41016 76.829 2.41016C75.9718 2.41016 75.2769 3.12946 75.2769 4.01677C75.2769 4.90407 75.9718 5.62338 76.829 5.62338Z" fill="white"/>
<path d="M254.588 129.332H91.531C89.8964 129.33 88.3293 128.658 87.1735 127.464C86.0177 126.27 85.3676 124.65 85.3657 122.961V41.7172C85.3671 40.4539 85.8533 39.2428 86.7177 38.3494C87.5821 37.4561 88.7541 36.9536 89.9766 36.9521H256.069C257.311 36.9536 258.502 37.4641 259.38 38.3717C260.258 39.2793 260.752 40.5098 260.754 41.7933V122.961C260.752 124.65 260.102 126.27 258.946 127.464C257.79 128.658 256.223 129.33 254.588 129.332ZM89.9766 37.6803C88.9409 37.6815 87.948 38.1072 87.2157 38.864C86.4834 39.6209 86.0715 40.647 86.0703 41.7172V122.961C86.0719 124.457 86.6478 125.892 87.6715 126.949C88.6952 128.007 90.0832 128.602 91.531 128.604H254.588C256.036 128.602 257.424 128.007 258.448 126.949C259.472 125.891 260.047 124.457 260.049 122.961V41.7933C260.048 40.7029 259.628 39.6574 258.882 38.8863C258.136 38.1153 257.124 37.6815 256.069 37.6803H89.9766Z" fill="#CCCCCC"/>
<path d="M97.2085 122.906H248.912C250.406 122.906 251.839 122.292 252.896 121.2C253.952 120.108 254.546 118.628 254.546 117.083V49.2006C254.546 47.6565 253.952 46.1756 252.896 45.0837C251.839 43.9918 250.406 43.3784 248.912 43.3784H97.2085C95.7143 43.3784 94.2814 43.9918 93.2248 45.0837C92.1683 46.1756 91.5747 47.6565 91.5747 49.2006V117.083C91.5747 118.628 92.1683 120.108 93.2248 121.2C94.2814 122.292 95.7143 122.906 97.2085 122.906Z" fill="#F2F2F2"/>
<path d="M114.856 63.4611C116.57 63.4611 117.96 62.0225 117.96 60.2479C117.96 58.4733 116.57 57.0347 114.856 57.0347C113.141 57.0347 111.751 58.4733 111.751 60.2479C111.751 62.0225 113.141 63.4611 114.856 63.4611Z" fill="#CCCCCC"/>
<path d="M114.856 75.5107C116.57 75.5107 117.96 74.0721 117.96 72.2974C117.96 70.5228 116.57 69.0842 114.856 69.0842C113.141 69.0842 111.751 70.5228 111.751 72.2974C111.751 74.0721 113.141 75.5107 114.856 75.5107Z" fill="#CCCCCC"/>
<path d="M114.856 88.3635C116.57 88.3635 117.96 86.9248 117.96 85.1502C117.96 83.3756 116.57 81.937 114.856 81.937C113.141 81.937 111.751 83.3756 111.751 85.1502C111.751 86.9248 113.141 88.3635 114.856 88.3635Z" fill="#CCCCCC"/>
<path d="M114.856 100.413C116.57 100.413 117.96 98.9747 117.96 97.2C117.96 95.4254 116.57 93.9868 114.856 93.9868C113.141 93.9868 111.751 95.4254 111.751 97.2C111.751 98.9747 113.141 100.413 114.856 100.413Z" fill="#CCCCCC"/>
<path d="M234.792 60.2479H130.728C130.635 60.2479 130.545 60.2056 130.479 60.1303C130.414 60.0549 130.376 59.9528 130.376 59.8462C130.376 59.7397 130.414 59.6376 130.479 59.5622C130.545 59.4869 130.635 59.4446 130.728 59.4446H234.792C234.885 59.4446 234.975 59.4869 235.041 59.5622C235.107 59.6376 235.144 59.7397 235.144 59.8462C235.144 59.9528 235.107 60.0549 235.041 60.1303C234.975 60.2056 234.885 60.2479 234.792 60.2479Z" fill="#CCCCCC"/>
<path d="M234.792 73.1009H130.728C130.635 73.1009 130.545 73.0586 130.479 72.9833C130.414 72.908 130.376 72.8058 130.376 72.6993C130.376 72.5927 130.414 72.4906 130.479 72.4153C130.545 72.3399 130.635 72.2976 130.728 72.2976H234.792C234.885 72.2976 234.975 72.3399 235.041 72.4153C235.107 72.4906 235.144 72.5927 235.144 72.6993C235.144 72.8058 235.107 72.908 235.041 72.9833C234.975 73.0586 234.885 73.1009 234.792 73.1009Z" fill="#CCCCCC"/>
<path d="M234.792 85.1505H130.728C130.635 85.1505 130.545 85.1082 130.479 85.0328C130.414 84.9575 130.376 84.8553 130.376 84.7488C130.376 84.6423 130.414 84.5401 130.479 84.4648C130.545 84.3895 130.635 84.3472 130.728 84.3472H234.792C234.885 84.3472 234.975 84.3895 235.041 84.4648C235.107 84.5401 235.144 84.6423 235.144 84.7488C235.144 84.8553 235.107 84.9575 235.041 85.0328C234.975 85.1082 234.885 85.1505 234.792 85.1505Z" fill="#CCCCCC"/>
<path d="M234.792 98.0033H130.728C130.635 98.0033 130.545 97.9609 130.479 97.8856C130.414 97.8103 130.376 97.7081 130.376 97.6016C130.376 97.4951 130.414 97.3929 130.479 97.3176C130.545 97.2423 130.635 97.2 130.728 97.2H234.792C234.885 97.2 234.975 97.2423 235.041 97.3176C235.107 97.3929 235.144 97.4951 235.144 97.6016C235.144 97.7081 235.107 97.8103 235.041 97.8856C234.975 97.9609 234.885 98.0033 234.792 98.0033Z" fill="#CCCCCC"/>
<path d="M150.315 110.053H139.928C139.453 110.052 138.998 109.858 138.662 109.512C138.327 109.166 138.138 108.697 138.137 108.207V98.2422C138.138 97.7529 138.327 97.2838 138.662 96.9379C138.998 96.5919 139.453 96.3973 139.928 96.3967H150.315C150.79 96.3973 151.245 96.5919 151.581 96.9379C151.917 97.2838 152.106 97.7529 152.106 98.2422V108.207C152.106 108.697 151.917 109.166 151.581 109.512C151.245 109.858 150.79 110.052 150.315 110.053Z" fill="#97B8D7"/>
<path d="M172.821 110.053H162.433C161.959 110.052 161.503 109.861 161.168 109.522C160.832 109.183 160.643 108.723 160.643 108.243V86.1574C160.643 85.6775 160.832 85.2174 161.168 84.878C161.503 84.5386 161.959 84.3477 162.433 84.3472H172.821C173.295 84.3477 173.751 84.5386 174.086 84.878C174.422 85.2174 174.611 85.6775 174.612 86.1574V108.243C174.611 108.723 174.422 109.183 174.086 109.522C173.751 109.861 173.295 110.052 172.821 110.053Z" fill="#97B8D7"/>
<path d="M196.102 110.053H185.715C185.24 110.052 184.785 109.859 184.449 109.514C184.114 109.17 183.925 108.703 183.924 108.217V73.3303C183.925 72.8435 184.114 72.3768 184.449 72.0326C184.785 71.6883 185.24 71.4947 185.715 71.4941H196.102C196.577 71.4947 197.032 71.6883 197.368 72.0326C197.704 72.3768 197.893 72.8435 197.893 73.3303V108.217C197.893 108.703 197.704 109.17 197.368 109.514C197.032 109.859 196.577 110.052 196.102 110.053Z" fill="#97B8D7"/>
<path d="M220.16 110.053H209.773C209.298 110.052 208.843 109.859 208.507 109.515C208.171 109.171 207.982 108.705 207.982 108.219V61.2782C207.982 60.7921 208.171 60.326 208.507 59.9823C208.843 59.6385 209.298 59.4451 209.773 59.4446H220.16C220.635 59.4451 221.09 59.6385 221.426 59.9823C221.761 60.326 221.95 60.7921 221.951 61.2782V108.219C221.95 108.705 221.761 109.171 221.426 109.515C221.09 109.859 220.635 110.052 220.16 110.053Z" fill="#97B8D7"/>
<path d="M234.792 110.053H130.728C130.635 110.053 130.545 110.011 130.479 109.935C130.414 109.86 130.376 109.758 130.376 109.651C130.376 109.545 130.414 109.442 130.479 109.367C130.545 109.292 130.635 109.25 130.728 109.25H234.792C234.885 109.25 234.975 109.292 235.041 109.367C235.107 109.442 235.144 109.545 235.144 109.651C235.144 109.758 235.107 109.86 235.041 109.935C234.975 110.011 234.885 110.053 234.792 110.053Z" fill="#3F3D56"/>
<path d="M279.978 177.985C280.262 177.519 280.636 177.127 281.075 176.835C281.513 176.544 282.005 176.36 282.516 176.297C283.028 176.234 283.545 176.293 284.033 176.47C284.521 176.648 284.967 176.939 285.34 177.323L296.453 171.104L295.761 178.111L285.314 182.942C284.677 183.579 283.847 183.939 282.981 183.956C282.115 183.973 281.273 183.645 280.616 183.034C279.958 182.423 279.53 181.571 279.412 180.641C279.295 179.71 279.496 178.765 279.978 177.985Z" fill="#FFB8B8"/>
<path d="M290.151 180.396C289.903 180.191 289.721 179.912 289.628 179.594L288.76 176.634C288.667 176.314 288.669 175.97 288.767 175.651C288.864 175.332 289.052 175.052 289.305 174.849L298.145 167.797L307.718 149.039C308.119 148.493 308.618 148.036 309.186 147.694C309.754 147.353 310.381 147.132 311.029 147.046C311.678 146.96 312.337 147.009 312.967 147.192C313.598 147.374 314.188 147.686 314.705 148.11C315.221 148.534 315.653 149.06 315.977 149.66C316.301 150.26 316.509 150.922 316.591 151.607C316.672 152.292 316.625 152.988 316.453 153.654C316.28 154.32 315.984 154.943 315.583 155.489L310.137 167.63C308.484 171.315 305.62 174.241 302.078 175.863L291.719 180.609C291.52 180.7 291.305 180.746 291.088 180.744C290.87 180.741 290.656 180.69 290.459 180.595C290.349 180.542 290.246 180.475 290.151 180.396Z" fill="#EE6A76"/>
<path d="M316.242 141.382C321.17 141.382 325.166 137.246 325.166 132.144C325.166 127.042 321.17 122.906 316.242 122.906C311.313 122.906 307.317 127.042 307.317 132.144C307.317 137.246 311.313 141.382 316.242 141.382Z" fill="#FFB8B8"/>
<path d="M312.748 249.828L308.542 249.828L306.541 232.155L312.749 232.156L312.748 249.828Z" fill="#FFB8B8"/>
<path d="M305.43 248.221H313.525V253.844H300.333C300.333 253.106 300.464 252.375 300.721 251.692C300.977 251.01 301.352 250.39 301.825 249.868C302.299 249.346 302.861 248.932 303.479 248.649C304.098 248.367 304.76 248.221 305.43 248.221Z" fill="#2F2E41"/>
<path d="M326.717 249.828L322.511 249.828L320.51 232.155L326.719 232.156L326.717 249.828Z" fill="#FFB8B8"/>
<path d="M319.399 248.221H327.495V253.844H314.302C314.302 253.106 314.434 252.375 314.69 251.692C314.946 251.01 315.321 250.39 315.795 249.868C316.268 249.346 316.83 248.932 317.448 248.649C318.067 248.367 318.73 248.221 319.399 248.221Z" fill="#2F2E41"/>
<path d="M326.709 245.008L321.724 245.008C321.381 245.007 321.047 244.889 320.775 244.671C320.502 244.452 320.306 244.147 320.216 243.8L313.041 215.976C313.03 215.933 313.004 215.895 312.967 215.871C312.931 215.846 312.888 215.837 312.845 215.844C312.803 215.851 312.765 215.875 312.738 215.91C312.711 215.945 312.698 215.989 312.7 216.034L314.15 242.422C314.162 242.655 314.127 242.889 314.046 243.107C313.965 243.325 313.841 243.522 313.681 243.685C313.52 243.848 313.329 243.973 313.118 244.052C312.908 244.131 312.684 244.162 312.461 244.142L306.858 243.654C306.499 243.622 306.162 243.461 305.903 243.199C305.644 242.937 305.479 242.59 305.437 242.216L300.333 186.806L302.307 188.045L320.811 184.76L328.257 243.16C328.286 243.391 328.268 243.625 328.204 243.848C328.139 244.07 328.03 244.276 327.884 244.451C327.737 244.626 327.557 244.766 327.354 244.862C327.151 244.958 326.931 245.008 326.709 245.008Z" fill="#121535"/>
<path d="M306.301 192.793C304.2 192.776 302.142 192.188 300.341 191.089C300.064 190.922 299.842 190.673 299.706 190.376C299.57 190.079 299.525 189.747 299.578 189.423C300.248 185.255 303.75 163.875 306.937 152.219C308.235 147.472 311.104 144.915 315.466 144.62C321.846 144.195 327.517 149.267 328.108 155.941C329.15 167.715 324.918 184.444 323.05 191.09C322.978 191.347 322.845 191.581 322.662 191.773C322.48 191.966 322.254 192.109 322.004 192.192C321.754 192.274 321.488 192.294 321.229 192.247C320.971 192.201 320.727 192.091 320.52 191.927L316.713 188.917C316.478 188.736 316.189 188.643 315.894 188.655C315.6 188.668 315.319 188.785 315.1 188.986C311.891 191.894 308.843 192.793 306.301 192.793Z" fill="#EE6A76"/>
<path opacity="0.2" d="M318.84 161.464L322.063 175.419L317.406 187.17L320.63 175.787L318.84 161.464Z" fill="black"/>
<path d="M321.257 139.774C322.018 139.789 322.774 139.646 323.482 139.354C323.793 139.229 324.116 139.126 324.427 139C327.171 137.893 328.979 134.84 329.044 131.767C329.109 128.694 327.586 125.712 325.324 123.746C323.062 121.781 320.133 120.772 317.199 120.538C314.039 120.287 310.481 121.124 308.715 123.873C308.245 124.604 307.917 125.492 308.195 126.376C308.278 126.642 308.427 126.881 308.627 127.069C309.416 127.802 310.202 127.251 311.006 127.202C312.111 127.135 313.103 128.07 313.46 129.164C313.816 130.259 313.659 131.464 313.371 132.58C313.152 133.252 313.013 133.949 312.959 134.657C312.936 135.012 313 135.367 313.145 135.689C313.29 136.01 313.511 136.288 313.787 136.496C314.478 136.932 315.384 136.679 316.075 136.244C316.766 135.809 317.363 135.204 318.109 134.883C318.856 134.563 319.858 134.634 320.292 135.344C320.43 135.603 320.524 135.885 320.568 136.177C320.958 138.03 320.868 137.921 321.257 139.774Z" fill="#BAD0E4"/>
<path d="M307.857 236.763L253.921 217.259C252.996 216.923 252.237 216.219 251.81 215.303C251.383 214.386 251.324 213.332 251.645 212.37L265.661 170.581C265.898 169.877 266.394 169.299 267.041 168.975C267.688 168.65 268.432 168.605 269.111 168.85L324.869 189.013C325.559 189.263 326.125 189.787 326.443 190.471C326.761 191.154 326.805 191.94 326.566 192.657L312.565 234.399C312.242 235.36 311.564 236.149 310.682 236.592C309.799 237.035 308.783 237.096 307.857 236.763Z" fill="#E6E6E6"/>
<path d="M258.487 215.014L305.317 231.95C306.209 232.272 307.187 232.214 308.037 231.787C308.888 231.36 309.54 230.6 309.85 229.674L321.088 196.166C321.399 195.24 321.342 194.224 320.931 193.341C320.52 192.458 319.788 191.781 318.897 191.459L272.067 174.523C271.175 174.201 270.196 174.259 269.346 174.686C268.496 175.113 267.844 175.873 267.533 176.799L256.296 210.307C256.142 210.765 256.077 211.251 256.104 211.735C256.13 212.22 256.249 212.695 256.453 213.132C256.656 213.569 256.94 213.96 257.29 214.283C257.639 214.606 258.046 214.855 258.487 215.014Z" fill="white"/>
<path d="M270.233 191.16L268.055 190.374C267.937 190.332 267.84 190.242 267.785 190.126C267.731 190.009 267.723 189.875 267.764 189.753L268.523 187.498C268.564 187.376 268.651 187.275 268.763 187.219C268.876 187.163 269.006 187.155 269.124 187.197L271.302 187.982C271.42 188.025 271.517 188.115 271.571 188.231C271.626 188.348 271.633 188.482 271.592 188.604L270.834 190.859C270.793 190.981 270.706 191.082 270.594 191.138C270.481 191.194 270.351 191.202 270.233 191.16Z" fill="#97B8D7"/>
<path d="M267.905 197.586L265.727 196.801C265.609 196.758 265.512 196.668 265.458 196.552C265.403 196.435 265.396 196.301 265.437 196.179L266.195 193.924C266.237 193.802 266.323 193.702 266.436 193.645C266.548 193.589 266.678 193.581 266.796 193.623L268.974 194.409C269.093 194.451 269.189 194.541 269.244 194.657C269.298 194.774 269.306 194.908 269.265 195.031L268.506 197.285C268.465 197.408 268.378 197.508 268.266 197.564C268.153 197.621 268.024 197.628 267.905 197.586Z" fill="#3F3D56"/>
<path d="M265.577 204.012L263.399 203.227C263.28 203.184 263.184 203.095 263.129 202.978C263.075 202.862 263.067 202.728 263.108 202.605L263.867 200.351C263.908 200.228 263.994 200.128 264.107 200.072C264.22 200.015 264.349 200.008 264.467 200.05L266.646 200.835C266.764 200.878 266.861 200.967 266.915 201.084C266.97 201.201 266.977 201.335 266.936 201.457L266.178 203.712C266.136 203.834 266.05 203.934 265.937 203.991C265.825 204.047 265.695 204.055 265.577 204.012Z" fill="#CCCCCC"/>
<path d="M285.682 195.974L274.292 191.505C274.228 191.481 274.169 191.442 274.119 191.392C274.069 191.341 274.027 191.28 273.998 191.212C273.969 191.144 273.952 191.069 273.948 190.994C273.944 190.918 273.953 190.842 273.975 190.77C273.997 190.699 274.032 190.633 274.077 190.576C274.122 190.519 274.176 190.473 274.237 190.44C274.297 190.408 274.363 190.388 274.43 190.384C274.498 190.38 274.565 190.391 274.628 190.416L286.019 194.884C286.082 194.909 286.141 194.948 286.191 194.998C286.242 195.049 286.283 195.11 286.312 195.178C286.342 195.246 286.359 195.32 286.363 195.396C286.367 195.472 286.357 195.548 286.335 195.619C286.313 195.691 286.279 195.757 286.234 195.814C286.189 195.87 286.135 195.916 286.074 195.949C286.013 195.982 285.947 196.001 285.88 196.006C285.813 196.01 285.745 195.999 285.682 195.974Z" fill="#CCCCCC"/>
<path d="M283.396 201.602L272.717 197.771C272.596 197.728 272.498 197.638 272.442 197.519C272.387 197.401 272.379 197.265 272.421 197.142C272.463 197.018 272.551 196.916 272.666 196.859C272.78 196.802 272.912 196.794 273.033 196.837L283.712 200.668C283.772 200.689 283.827 200.722 283.874 200.765C283.921 200.809 283.96 200.861 283.987 200.92C284.015 200.978 284.031 201.042 284.035 201.106C284.038 201.171 284.029 201.236 284.009 201.298C283.988 201.359 283.956 201.416 283.913 201.464C283.871 201.513 283.821 201.552 283.764 201.581C283.707 201.609 283.645 201.625 283.582 201.629C283.519 201.633 283.456 201.623 283.396 201.602Z" fill="#CCCCCC"/>
<path d="M281.803 208.029L270.411 204.198C270.282 204.155 270.177 204.064 270.118 203.946C270.059 203.828 270.051 203.692 270.095 203.568C270.14 203.444 270.234 203.343 270.356 203.286C270.478 203.229 270.619 203.221 270.747 203.264L282.14 207.095C282.268 207.138 282.374 207.228 282.433 207.346C282.492 207.465 282.5 207.6 282.455 207.724C282.411 207.848 282.317 207.95 282.194 208.007C282.072 208.064 281.931 208.072 281.803 208.029Z" fill="#CCCCCC"/>
<path d="M311.925 212.073C312.008 211.86 312.085 211.643 312.156 211.423C313.086 208.548 312.917 205.394 311.687 202.653C310.458 199.913 308.268 197.811 305.6 196.81L301.884 208.305L311.925 212.073Z" fill="#97B8D7"/>
<path d="M300.53 208.7L304.19 197.436C302.256 196.714 300.166 196.614 298.18 197.149C296.193 197.685 294.396 198.831 293.01 200.448C291.624 202.065 290.71 204.081 290.381 206.247C290.051 208.414 290.321 210.637 291.156 212.641C291.991 214.646 293.355 216.345 295.081 217.528C296.806 218.712 298.817 219.328 300.865 219.302C302.914 219.275 304.91 218.607 306.608 217.379C308.306 216.151 309.632 214.417 310.422 212.392L300.53 208.7Z" fill="#3F3D56"/>
<path d="M313.538 192.725C313.494 192.211 313.569 191.694 313.758 191.211C313.947 190.727 314.245 190.289 314.632 189.927C315.019 189.565 315.484 189.288 315.995 189.115C316.507 188.942 317.052 188.878 317.592 188.927L323.085 177.53L326.719 183.054L320.946 193.03C320.799 193.887 320.326 194.663 319.617 195.211C318.908 195.759 318.012 196.041 317.099 196.003C316.186 195.965 315.319 195.611 314.663 195.007C314.007 194.403 313.606 193.591 313.538 192.725Z" fill="#FFB8B8"/>
<path d="M322.692 188.777C322.376 188.777 322.068 188.675 321.809 188.484L319.391 186.705C319.13 186.512 318.93 186.238 318.82 185.921C318.71 185.603 318.694 185.258 318.775 184.93L321.618 173.522L318.182 152.341C318.178 151.644 318.303 150.953 318.551 150.307C318.798 149.662 319.163 149.074 319.624 148.579C320.086 148.083 320.635 147.689 321.239 147.419C321.844 147.149 322.493 147.008 323.149 147.005C323.805 147.002 324.455 147.136 325.062 147.399C325.67 147.663 326.222 148.052 326.688 148.542C327.153 149.033 327.524 149.617 327.777 150.26C328.03 150.903 328.162 151.592 328.165 152.289L330.98 165.506C331.835 169.517 331.29 173.722 329.446 177.338L324.054 187.915C323.95 188.118 323.807 188.296 323.634 188.437C323.461 188.577 323.263 188.678 323.051 188.732C322.933 188.762 322.813 188.777 322.692 188.777Z" fill="#EE6A76"/>
<path d="M349.648 253.844H282.835C282.742 253.844 282.652 253.802 282.586 253.727C282.52 253.651 282.483 253.549 282.483 253.443C282.483 253.336 282.52 253.234 282.586 253.159C282.652 253.083 282.742 253.041 282.835 253.041H349.648C349.742 253.041 349.831 253.083 349.897 253.159C349.963 253.234 350 253.336 350 253.443C350 253.549 349.963 253.651 349.897 253.727C349.831 253.802 349.742 253.844 349.648 253.844Z" fill="#CCCCCC"/>
<path d="M172.285 249.025L177.017 249.024L179.269 232.155H172.284L172.285 249.025Z" fill="#A0616A"/>
<path d="M171.508 248.222L180.039 248.221C180.753 248.221 181.461 248.362 182.12 248.636C182.78 248.909 183.379 249.31 183.884 249.816C184.389 250.322 184.79 250.922 185.063 251.583C185.336 252.244 185.477 252.952 185.477 253.667V253.844L171.508 253.844L171.508 248.222Z" fill="#2F2E41"/>
<path d="M155.212 249.025L159.418 249.024L161.419 232.155H155.211L155.212 249.025Z" fill="#A0616A"/>
<path d="M154.435 248.222L162.966 248.221C163.68 248.221 164.388 248.362 165.047 248.636C165.707 248.909 166.306 249.31 166.811 249.816C167.316 250.322 167.716 250.922 167.99 251.583C168.263 252.244 168.404 252.952 168.404 253.667V253.844L154.435 253.844L154.435 248.222Z" fill="#2F2E41"/>
<path d="M173.448 130.135C178.377 130.135 182.373 126.179 182.373 121.299C182.373 116.419 178.377 112.463 173.448 112.463C168.519 112.463 164.523 116.419 164.523 121.299C164.523 126.179 168.519 130.135 173.448 130.135Z" fill="#A0616A"/>
<path d="M178.953 245.811H170.948C170.739 245.811 170.531 245.768 170.338 245.684C170.144 245.601 169.969 245.478 169.822 245.323C169.675 245.168 169.558 244.985 169.48 244.783C169.401 244.582 169.362 244.366 169.365 244.149L169.83 204.705C169.832 204.565 169.782 204.429 169.69 204.326C169.598 204.223 169.472 204.161 169.338 204.152C169.203 204.142 169.07 204.187 168.966 204.276C168.862 204.365 168.795 204.493 168.778 204.632L164.119 244.367C164.072 244.765 163.887 245.132 163.597 245.398C163.308 245.664 162.934 245.811 162.548 245.811H154.466C154.247 245.812 154.031 245.765 153.831 245.674C153.631 245.583 153.451 245.45 153.303 245.284C153.155 245.118 153.042 244.921 152.97 244.707C152.898 244.493 152.87 244.266 152.887 244.04L158.224 173.181L158.369 173.165L183.924 170.301L180.535 244.247C180.516 244.668 180.341 245.067 180.046 245.358C179.752 245.65 179.36 245.812 178.953 245.811Z" fill="#121535"/>
<path d="M159.169 177.53C158.764 177.529 158.375 177.363 158.084 177.067C157.794 176.77 157.625 176.366 157.612 175.941C157.475 171.466 157.239 155.983 159.981 144.616C160.729 141.511 162.409 138.741 164.771 136.716C167.134 134.691 170.055 133.518 173.101 133.371C176.1 133.199 179.074 134.023 181.601 135.726C184.128 137.43 186.081 139.926 187.182 142.86C191.791 155.15 196.145 170.298 190.716 172.674C183.601 175.788 164.844 177.176 159.265 177.527C159.233 177.529 159.201 177.53 159.169 177.53Z" fill="#EE6A76"/>
<path d="M192.009 112.457C192.143 112.6 192.289 112.732 192.443 112.852L191.544 130.748L187.805 132.732L189.957 138.972L196.906 136.126C197.467 135.896 197.941 135.484 198.257 134.951C198.573 134.418 198.714 133.793 198.658 133.17L196.838 112.869C197.433 112.409 197.879 111.771 198.117 111.041C198.354 110.311 198.372 109.524 198.167 108.783C197.962 108.043 197.544 107.385 196.97 106.896C196.395 106.408 195.691 106.112 194.95 106.049C194.209 105.986 193.467 106.158 192.823 106.542C192.179 106.926 191.663 107.504 191.344 108.2C191.024 108.896 190.917 109.675 191.036 110.436C191.155 111.196 191.494 111.901 192.009 112.457Z" fill="#A0616A"/>
<path d="M191.305 131.228L193.924 139.023C193.999 139.245 194.027 139.481 194.007 139.715C193.986 139.949 193.918 140.176 193.806 140.38C193.694 140.584 193.542 140.76 193.36 140.897C193.177 141.034 192.968 141.128 192.748 141.173L185.024 142.739C183.939 143.132 182.748 143.058 181.715 142.533C180.681 142.009 179.888 141.076 179.51 139.94C179.132 138.804 179.199 137.557 179.697 136.473C180.196 135.389 181.084 134.557 182.168 134.158L189.103 130.324C189.301 130.215 189.52 130.151 189.744 130.138C189.968 130.125 190.193 130.162 190.402 130.248C190.611 130.334 190.8 130.466 190.955 130.635C191.111 130.804 191.231 131.006 191.305 131.228Z" fill="#EE6A76"/>
<path d="M154.111 112.457C153.976 112.6 153.831 112.732 153.676 112.852L154.575 130.748L158.314 132.732L156.163 138.972L149.214 136.126C148.653 135.896 148.178 135.484 147.862 134.951C147.546 134.418 147.406 133.793 147.462 133.17L149.282 112.87C148.686 112.409 148.24 111.771 148.003 111.042C147.765 110.312 147.748 109.524 147.953 108.784C148.158 108.043 148.575 107.385 149.15 106.897C149.725 106.408 150.429 106.113 151.17 106.049C151.911 105.986 152.652 106.158 153.297 106.542C153.941 106.926 154.457 107.505 154.776 108.2C155.095 108.896 155.203 109.676 155.084 110.436C154.965 111.196 154.626 111.901 154.111 112.457Z" fill="#A0616A"/>
<path d="M155.718 130.248C155.927 130.162 156.151 130.125 156.375 130.138C156.599 130.151 156.818 130.215 157.016 130.324L163.951 134.158C165.035 134.557 165.923 135.389 166.422 136.473C166.92 137.557 166.987 138.804 166.609 139.94C166.231 141.076 165.438 142.009 164.404 142.533C163.371 143.058 162.18 143.132 161.095 142.739L153.371 141.173C153.151 141.128 152.942 141.034 152.76 140.897C152.577 140.76 152.425 140.584 152.313 140.38C152.201 140.176 152.133 139.949 152.112 139.715C152.092 139.481 152.12 139.245 152.195 139.023L154.814 131.228C154.888 131.007 155.008 130.804 155.163 130.635C155.319 130.466 155.508 130.334 155.718 130.248Z" fill="#EE6A76"/>
<path d="M177.049 122.889C177.003 121.741 177.279 120.604 177.841 119.617C178.404 118.63 179.229 117.835 180.216 117.331C182.831 115.918 184.474 112.906 183.755 110.154C182.833 106.633 178.251 104.349 174.539 105.561C173.534 105.934 172.565 106.405 171.645 106.968L169.22 108.328C168.184 108.87 167.185 109.487 166.23 110.174C164.8 111.276 163.679 112.76 162.984 114.47C162.29 116.181 162.047 118.055 162.282 119.897C162.759 123.477 165 126.76 168.068 129.007C169.241 129.925 170.596 130.555 172.033 130.851C173.504 131.105 175.141 130.817 176.216 129.86C177.897 128.365 177.723 125.861 177.179 123.771C177.108 123.482 177.064 123.187 177.049 122.889Z" fill="#2F2E41"/>
<path d="M206.079 253.844H139.265C139.172 253.844 139.083 253.802 139.017 253.727C138.951 253.651 138.914 253.549 138.914 253.443C138.914 253.336 138.951 253.234 139.017 253.159C139.083 253.083 139.172 253.041 139.265 253.041H206.079C206.172 253.041 206.261 253.083 206.327 253.159C206.393 253.234 206.43 253.336 206.43 253.443C206.43 253.549 206.393 253.651 206.327 253.727C206.261 253.802 206.172 253.844 206.079 253.844Z" fill="#CCCCCC"/>
<path d="M96.9336 187.625L41.6026 210.973C40.6523 211.372 39.5867 211.368 38.6396 210.961C37.6925 210.553 36.9411 209.776 36.5504 208.799L19.6127 166.334C19.328 165.618 19.3311 164.815 19.6212 164.101C19.9114 163.387 20.465 162.821 21.1605 162.527L78.362 138.39C79.0702 138.092 79.8644 138.095 80.5703 138.399C81.2762 138.702 81.8362 139.281 82.1273 140.009L99.0464 182.428C99.435 183.406 99.4308 184.502 99.0347 185.476C98.6386 186.45 97.883 187.223 96.9336 187.625Z" fill="#E6E6E6"/>
<path d="M43.7651 205.356L92.3393 184.866C93.2643 184.476 94.0007 183.724 94.3864 182.775C94.7721 181.827 94.7757 180.76 94.3962 179.809L80.6651 145.393C80.4772 144.922 80.201 144.494 79.8521 144.133C79.5032 143.772 79.0886 143.485 78.6319 143.288C78.1751 143.092 77.6853 142.99 77.1902 142.988C76.6952 142.987 76.2047 143.085 75.7466 143.278L27.1724 163.768C26.7144 163.962 26.2979 164.246 25.9467 164.604C25.5954 164.963 25.3164 165.389 25.1254 165.859C24.9344 166.329 24.8352 166.832 24.8335 167.341C24.8318 167.85 24.9277 168.355 25.1156 168.826L38.8467 203.241C39.0345 203.712 39.3108 204.14 39.6597 204.501C40.0085 204.863 40.4232 205.15 40.8799 205.346C41.3366 205.542 41.8265 205.644 42.3215 205.646C42.8166 205.648 43.3071 205.549 43.7651 205.356Z" fill="white"/>
<path d="M80.2705 155.109L79.5615 155.41L79.61 155.533L80.319 155.232L80.2705 155.109Z" fill="#E6E6E6"/>
<path d="M78.3812 155.965L76.9308 156.583L76.8817 156.459L78.3321 155.841L78.3812 155.965ZM75.4804 157.201L74.03 157.819L73.981 157.695L75.4313 157.077L75.4804 157.201ZM72.5797 158.437L71.1293 159.055L71.0802 158.931L72.5306 158.313L72.5797 158.437ZM69.6789 159.673L68.2285 160.291L68.1794 160.166L69.6298 159.549L69.6789 159.673ZM66.7781 160.909L65.3277 161.526L65.2786 161.402L66.729 160.784L66.7781 160.909ZM63.8773 162.144L62.427 162.762L62.3779 162.638L63.8282 162.02L63.8773 162.144ZM60.9766 163.38L59.5262 163.998L59.4771 163.874L60.9275 163.256L60.9766 163.38ZM58.0758 164.616L56.6254 165.234L56.5763 165.11L58.0267 164.492L58.0758 164.616ZM55.175 165.852L53.7246 166.47L53.6756 166.345L55.1259 165.728L55.175 165.852ZM52.2742 167.088L50.8239 167.706L50.7748 167.581L52.2252 166.963L52.2742 167.088ZM49.3735 168.323L47.9231 168.941L47.874 168.817L49.3244 168.199L49.3735 168.323ZM46.4727 169.559L45.0223 170.177L44.9732 170.053L46.4236 169.435L46.4727 169.559ZM43.5719 170.795L42.1215 171.413L42.0725 171.289L43.5228 170.671L43.5719 170.795ZM40.6712 172.031L39.2208 172.649L39.1717 172.525L40.6221 171.907L40.6712 172.031ZM37.7704 173.267L36.32 173.885L36.2709 173.76L37.7213 173.142L37.7704 173.267ZM34.8696 174.502L33.4192 175.12L33.3701 174.996L34.8205 174.378L34.8696 174.502Z" fill="#E6E6E6"/>
<path d="M32.2959 175.485L31.5869 175.786L31.6354 175.909L32.3444 175.608L32.2959 175.485Z" fill="#E6E6E6"/>
<path d="M61.5005 176.373L60.7915 176.674L60.84 176.796L61.549 176.495L61.5005 176.373Z" fill="#E6E6E6"/>
<path d="M59.7563 177.649L58.311 178.23L58.2614 178.112L59.7067 177.531L59.7563 177.649ZM56.8657 178.812L55.4204 179.393L55.3707 179.274L56.816 178.693L56.8657 178.812ZM53.9751 179.974L52.5297 180.555L52.4801 180.436L53.9254 179.855L53.9751 179.974ZM51.0844 181.136L49.6391 181.717L49.5894 181.599L51.0348 181.018L51.0844 181.136ZM48.1938 182.299L46.7484 182.88L46.6988 182.761L48.1441 182.18L48.1938 182.299ZM45.3031 183.461L43.8578 184.042L43.8081 183.924L45.2535 183.342L45.3031 183.461ZM42.4125 184.623L40.9672 185.205L40.9175 185.086L42.3628 184.505L42.4125 184.623ZM39.5218 185.786L38.0765 186.367L38.0269 186.248L39.4722 185.667L39.5218 185.786Z" fill="#E6E6E6"/>
<path d="M36.8042 186.863L36.0952 187.164L36.1437 187.286L36.8527 186.985L36.8042 186.863Z" fill="#E6E6E6"/>
<path d="M49.8081 187.628L49.0991 187.929L49.1476 188.051L49.8566 187.75L49.8081 187.628Z" fill="#E6E6E6"/>
<path d="M47.3395 188.899L45.9518 189.517L45.9055 189.395L47.2931 188.777L47.3395 188.899ZM44.5642 190.135L43.1766 190.754L43.1302 190.631L44.5179 190.013L44.5642 190.135ZM41.7889 191.372L40.4013 191.99L40.355 191.867L41.7426 191.249L41.7889 191.372Z" fill="#E6E6E6"/>
<path d="M38.9375 192.245L38.2285 192.546L38.277 192.668L38.986 192.367L38.9375 192.245Z" fill="#E6E6E6"/>
<path d="M53.4477 196.813L52.7388 197.114L52.7872 197.237L53.4962 196.935L53.4477 196.813Z" fill="#E6E6E6"/>
<path d="M51.2198 197.736L49.8322 198.354L49.7859 198.231L51.1735 197.613L51.2198 197.736ZM48.4446 198.972L47.0569 199.59L47.0106 199.467L48.3982 198.849L48.4446 198.972ZM45.6693 200.208L44.2817 200.826L44.2354 200.704L45.623 200.086L45.6693 200.208Z" fill="#E6E6E6"/>
<path d="M42.5771 201.431L41.8682 201.732L41.9166 201.854L42.6256 201.553L42.5771 201.431Z" fill="#E6E6E6"/>
<path d="M45.7871 200.023L86.7393 182.771C87.7304 182.352 88.5192 181.547 88.9328 180.531C89.3463 179.516 89.3506 178.374 88.945 177.355L80.6708 156.645L80.5908 156.681L70.5411 181.356L63.0875 178.156C62.95 178.096 62.8009 178.07 62.652 178.08C62.503 178.089 62.3583 178.134 62.229 178.211C62.0349 178.331 61.8848 178.513 61.8018 178.73L56.5349 191.66L51.0853 189.321C50.9677 189.27 50.8415 189.244 50.7141 189.243C50.5866 189.243 50.4603 189.268 50.3423 189.318C50.2244 189.368 50.1171 189.441 50.0267 189.533C49.9363 189.625 49.8644 189.735 49.8153 189.856C49.7804 189.943 46.4202 198.409 45.7871 200.023Z" fill="#97B8D7"/>
<path d="M45.9042 200.826L45.7871 200.775L49.9673 190.34C50.078 190.065 50.2888 189.846 50.5535 189.733C50.8182 189.62 51.1152 189.621 51.3793 189.736L56.6784 192.049L61.8732 179.081C61.9839 178.806 62.1947 178.587 62.4594 178.474C62.7241 178.361 63.0211 178.362 63.2852 178.477L70.5722 181.658L80.5924 156.645L80.7095 156.696L70.6403 181.831L63.2362 178.599C63.1209 178.548 62.9971 178.522 62.8721 178.522C62.747 178.521 62.6231 178.547 62.5074 178.596C62.3917 178.646 62.2865 178.719 62.1978 178.811C62.1091 178.903 62.0386 179.012 61.9904 179.132L56.7466 192.222L51.3303 189.858C51.0973 189.756 50.8353 189.756 50.6017 189.856C50.3681 189.956 50.1821 190.148 50.0844 190.391L45.9042 200.826Z" fill="#3F3D56"/>
<path d="M49.6677 188.777C50.0963 188.777 50.4437 188.237 50.4437 187.572C50.4437 186.906 50.0963 186.367 49.6677 186.367C49.2391 186.367 48.8916 186.906 48.8916 187.572C48.8916 188.237 49.2391 188.777 49.6677 188.777Z" fill="#3F3D56"/>
<path d="M61.3083 177.531C61.7369 177.531 62.0843 176.991 62.0843 176.326C62.0843 175.66 61.7369 175.121 61.3083 175.121C60.8797 175.121 60.5322 175.66 60.5322 176.326C60.5322 176.991 60.8797 177.531 61.3083 177.531Z" fill="#3F3D56"/>
<path d="M79.9333 155.841C80.3619 155.841 80.7093 155.482 80.7093 155.038C80.7093 154.594 80.3619 154.235 79.9333 154.235C79.5047 154.235 79.1572 154.594 79.1572 155.038C79.1572 155.482 79.5047 155.841 79.9333 155.841Z" fill="#3F3D56"/>
<path d="M29.6907 186.77C30.1263 186.529 30.5092 186.186 30.8122 185.763C31.1152 185.34 31.3311 184.848 31.4446 184.323C31.5581 183.797 31.5664 183.251 31.4691 182.721C31.3717 182.192 31.1709 181.693 30.881 181.259L33.3701 154.235H27.9909L26.0128 180.622C25.3885 181.211 24.9806 182.034 24.8662 182.935C24.7519 183.836 24.9392 184.752 25.3925 185.51C25.8459 186.268 26.5338 186.815 27.326 187.047C28.1182 187.279 28.9595 187.181 29.6907 186.77Z" fill="#FFB8B8"/>
<path d="M35.3107 139.775C39.811 139.775 43.4592 135.999 43.4592 131.34C43.4592 126.682 39.811 122.906 35.3107 122.906C30.8103 122.906 27.1621 126.682 27.1621 131.34C27.1621 135.999 30.8103 139.775 35.3107 139.775Z" fill="#FFB8B8"/>
<path d="M36.3799 170.301C36.0456 170.301 35.7205 170.19 35.4545 169.986C35.1885 169.781 34.9964 169.495 34.9076 169.17C34.2383 166.719 32.4971 162.575 29.7324 156.853C29.1086 155.559 28.7632 154.148 28.7188 152.71C28.6744 151.272 28.932 149.842 29.4748 148.512C30.0176 147.181 30.8332 145.982 31.8683 144.992C32.9033 144.002 34.1343 143.244 35.4805 142.767C36.7563 142.313 38.1094 142.121 39.4599 142.204C40.8104 142.286 42.1308 142.64 43.343 143.246C44.5551 143.852 45.6345 144.696 46.5171 145.73C47.3998 146.764 48.0678 147.965 48.4817 149.263C50.6246 156.035 50.5212 163.289 50.3772 166.093C50.3593 166.431 50.2321 166.753 50.015 167.011C49.7979 167.269 49.5029 167.448 49.1753 167.521L36.7082 170.265C36.6004 170.289 36.4903 170.301 36.3799 170.301Z" fill="#EE6A76"/>
<path d="M48.116 249.828H52.3223L54.3237 233.762L48.1152 233.762L48.116 249.828Z" fill="#FFB8B8"/>
<path d="M60.0874 253.64L47.3511 253.641L47.3509 248.547L55.1663 248.546C55.8126 248.546 56.4524 248.678 57.0495 248.934C57.6465 249.19 58.189 249.565 58.646 250.038C59.1029 250.511 59.4654 251.073 59.7127 251.691C59.9601 252.309 60.0874 252.971 60.0874 253.64Z" fill="#2F2E41"/>
<path d="M7.76025 244.51L11.213 246.615L20.1771 232.852L15.0818 229.745L7.76025 244.51Z" fill="#FFB8B8"/>
<path d="M16.2842 253.64L5.1234 247.288L7.49409 242.824L14.3428 246.722C15.4864 247.373 16.3334 248.467 16.6975 249.765C17.0616 251.062 16.9129 252.456 16.2842 253.64Z" fill="#2F2E41"/>
<path d="M48.2625 240.992C47.9012 240.991 47.5523 240.855 47.281 240.607C47.0097 240.36 46.8345 240.019 46.788 239.647L41.717 199.133C41.6946 198.954 41.6181 198.786 41.4985 198.655C41.3789 198.523 41.2223 198.434 41.0511 198.401C40.8799 198.367 40.7027 198.39 40.545 198.467C40.3873 198.544 40.2571 198.671 40.1729 198.829L19.0389 238.583C18.8645 238.908 18.5836 239.156 18.2472 239.284C17.9107 239.412 17.5412 239.411 17.2057 239.281L12.5991 237.461C12.4138 237.388 12.2445 237.277 12.1011 237.135C11.9577 236.993 11.8431 236.823 11.7641 236.634C11.685 236.446 11.6431 236.243 11.6407 236.037C11.6384 235.832 11.6757 235.628 11.7505 235.437L26.3905 198.15C26.4276 198.055 26.4527 197.956 26.4653 197.855C28.4482 181.942 33.4934 173.851 34.9924 171.75C35.1019 171.595 35.1739 171.416 35.2025 171.226C35.231 171.037 35.2152 170.843 35.1564 170.661L34.9503 170.021C34.868 169.766 34.8512 169.494 34.9014 169.231C34.9516 168.967 35.0672 168.722 35.2368 168.52C40.6382 162.141 50.0527 165.622 50.1472 165.658L50.1944 165.676L50.2239 165.717C60.7804 180.727 56.8773 229.48 55.9877 239.1C55.9545 239.462 55.799 239.8 55.5488 240.054C55.2986 240.308 54.9697 240.462 54.6204 240.489L48.3781 240.987C48.3393 240.99 48.3008 240.992 48.2625 240.992Z" fill="#121535"/>
<path d="M66.7661 140.908C66.7249 141.09 66.698 141.276 66.6857 141.463L52.2568 149.844L48.7496 147.811L45.0107 152.739L50.8721 156.945C51.3457 157.285 51.9159 157.461 52.4972 157.447C53.0785 157.433 53.6396 157.229 54.0961 156.866L68.9748 145.048C69.6463 145.298 70.3776 145.337 71.0713 145.158C71.765 144.98 72.3884 144.593 72.8584 144.049C73.3285 143.505 73.623 142.83 73.7028 142.114C73.7825 141.398 73.6438 140.674 73.3049 140.039C72.9661 139.403 72.4433 138.887 71.806 138.559C71.1687 138.23 70.4471 138.105 69.7373 138.199C69.0275 138.293 68.363 138.603 67.8322 139.087C67.3015 139.571 66.9296 140.206 66.7661 140.908Z" fill="#FFB8B8"/>
<path d="M51.6852 149.912L47.0839 156.047C46.953 156.222 46.787 156.365 46.5973 156.468C46.4077 156.571 46.1987 156.63 45.9847 156.642C45.7707 156.654 45.5567 156.619 45.3573 156.538C45.1578 156.457 44.9776 156.333 44.829 156.174L39.62 150.609C38.7556 149.915 38.1942 148.896 38.0586 147.777C37.9231 146.657 38.2246 145.528 38.8969 144.637C39.5693 143.745 40.5577 143.165 41.6455 143.022C42.7332 142.88 43.8315 143.187 44.6995 143.876L51.2327 147.635C51.4197 147.743 51.582 147.891 51.7085 148.069C51.8349 148.247 51.9226 148.451 51.9656 148.667C52.0085 148.883 52.0057 149.106 51.9573 149.321C51.9089 149.535 51.8161 149.737 51.6852 149.912Z" fill="#EE6A76"/>
<path d="M33.7589 160.638L26.7667 159.314C26.5678 159.276 26.3789 159.194 26.213 159.073C26.047 158.951 25.908 158.794 25.8052 158.612C25.7024 158.429 25.6384 158.225 25.6174 158.015C25.5965 157.804 25.6191 157.591 25.6838 157.39L27.9505 150.352C28.1401 149.285 28.7251 148.341 29.5774 147.726C30.4296 147.112 31.4796 146.876 32.497 147.072C33.5144 147.268 34.4162 147.879 35.0047 148.771C35.5931 149.663 35.8202 150.764 35.6362 151.831L35.415 159.232C35.4086 159.444 35.3588 159.652 35.2688 159.842C35.1789 160.032 35.051 160.199 34.8938 160.333C34.7366 160.466 34.5539 160.562 34.3581 160.615C34.1622 160.668 33.9579 160.675 33.7589 160.638Z" fill="#FF6584"/>
<path d="M36.452 129.238C38.5565 130.714 41.3198 132.23 43.4693 130.659C44.1416 130.135 44.6301 129.401 44.8615 128.569C45.0929 127.736 45.0548 126.849 44.753 126.04C43.7238 123.025 40.896 121.698 38.1919 120.681C34.6766 119.358 30.849 118.306 27.22 119.253C23.591 120.2 20.3839 123.799 21.039 127.576C21.5658 130.614 24.3628 133.141 23.9657 136.199C23.5661 139.276 20.1872 140.896 17.2043 141.446C14.2213 141.996 10.8833 142.173 8.73951 144.368C6.00476 147.168 6.68767 152.172 9.26095 155.128C11.8342 158.084 15.7175 159.424 19.4803 160.335C24.4658 161.542 29.8581 162.176 34.5931 160.173C39.3281 158.17 43.0128 152.779 41.6412 147.723C41.0618 145.587 39.6969 143.782 38.3779 142.025C37.0588 140.268 35.7231 138.43 35.22 136.275C34.8007 134.478 35.111 132.392 36.274 131.045C36.4856 130.809 36.6187 130.51 36.6543 130.192C36.6899 129.874 36.6262 129.552 36.4722 129.274L36.452 129.238Z" fill="#F8A45B"/>
<path d="M67.165 253.844H0.351649C0.258386 253.844 0.168942 253.802 0.102995 253.727C0.0370484 253.651 0 253.549 0 253.443C0 253.336 0.0370484 253.234 0.102995 253.159C0.168942 253.083 0.258386 253.041 0.351649 253.041H67.165C67.2582 253.041 67.3477 253.083 67.4136 253.159C67.4796 253.234 67.5166 253.336 67.5166 253.443C67.5166 253.549 67.4796 253.651 67.4136 253.727C67.3477 253.802 67.2582 253.844 67.165 253.844Z" fill="#CCCCCC"/>
</svg>
